<?xml version="1.0" encoding="UTF-8"?>
<svg version="1.1" xmlns="http://www.w3.org/2000/svg" width="500" height="220">
<path d="M0 0 C1.68236471 0.62599617 3.3523962 1.28752268 5 2 C5.66 2 6.32 2 7 2 C7 1.34 7 0.68 7 0 C8.62490954 -0.02698189 10.24994633 -0.04638757 11.875 -0.0625 C12.77992188 -0.07410156 13.68484375 -0.08570313 14.6171875 -0.09765625 C17 0 17 0 19 1 C18.67 1.99 18.34 2.98 18 4 C15.69 4.33 13.38 4.66 11 5 C11 5.66 11 6.32 11 7 C11.99 7 12.98 7 14 7 C14 6.34 14 5.68 14 5 C17.3 5.33 20.6 5.66 24 6 C24 10.38448044 23.28905989 12.32115375 21 16 C18.890625 16.67578125 18.890625 16.67578125 17 17 C19.14939315 22.10480873 20.89944089 25.16189403 25.3125 28.5625 C27.40625 30.27734375 27.40625 30.27734375 29 32 C29.3900614 36.52471225 28.51511614 38.28792768 25.875 41.9375 C22.27710864 44.51859598 20.34083735 44.56270114 16 44 C15.01 43.34 14.02 42.68 13 42 C10.61700383 41.55058745 8.21774516 41.18393057 5.8125 40.875 C4.54019531 40.70742187 3.26789063 40.53984375 1.95703125 40.3671875 C0.98121094 40.24601562 0.00539062 40.12484375 -1 40 C-2.0842148 41.54104688 -3.16732521 43.08287078 -4.25 44.625 C-5.21486328 45.99591797 -5.21486328 45.99591797 -6.19921875 47.39453125 C-7.538641 49.33248058 -8.81733255 51.31268561 -10.0625 53.3125 C-12 56 -12 56 -14.9375 58.125 C-18.93145286 61.19572757 -20.03459665 65.62205419 -21.78515625 70.19140625 C-23.70451346 74.62876263 -26.68891401 77.01926639 -30.48046875 79.85546875 C-34.53416308 83.96857715 -34.87160872 89.91094977 -35.8125 95.375 C-36.02406738 96.541521 -36.23563477 97.70804199 -36.45361328 98.90991211 C-37.91396747 107.39682115 -38.64950088 115.38851414 -38 124 C-37.96648437 124.89847656 -37.93296875 125.79695313 -37.8984375 126.72265625 C-37.58467737 131.8006163 -36.25146893 134.20661958 -33 138 C-33.125 140.25 -33.125 140.25 -34 142 C-36.88861709 143.44430855 -38.79647701 143.37688506 -42 143 C-45.01192918 140.72432017 -46.70625764 139.17496945 -47.6328125 135.46875 C-48.12257263 130.84207986 -48.10560233 126.27342014 -48.0625 121.625 C-48.05798828 120.69816406 -48.05347656 119.77132812 -48.04882812 118.81640625 C-48.03711574 116.54420291 -48.02071372 114.27213612 -48 112 C-49.49026845 116.86695266 -50.50214198 121.56468743 -51.1875 126.625 C-51.36667969 127.89601563 -51.54585938 129.16703125 -51.73046875 130.4765625 C-52.09326103 135.21915145 -51.94009573 137.83200227 -48.9375 141.5625 C-47 144 -47 144 -47 148 C-50.50696424 149.75348212 -54.43103758 149.46011466 -58.14453125 148.37109375 C-60 147 -60 147 -60.86328125 144.2421875 C-61.01152344 143.13101563 -61.15976563 142.01984375 -61.3125 140.875 C-61.47363281 139.77929688 -61.63476562 138.68359375 -61.80078125 137.5546875 C-61.98054672 134.34710747 -61.7158333 131.5183815 -61.25561523 128.35205078 C-60.70202343 123.25816017 -60.85759291 118.11768474 -60.875 113 C-60.87113281 111.86304688 -60.86726563 110.72609375 -60.86328125 109.5546875 C-60.17142222 99.73081801 -60.17142222 99.73081801 -63 91 C-69.43779098 91.04509836 -75.62941516 92.07343966 -81.875 93.5625 C-91.29139718 95.68979239 -100.82198546 96.31970739 -110 93 C-112.53349802 91.94154191 -112.53349802 91.94154191 -115 92 C-117.47943955 94.22847788 -117.47943955 94.22847788 -120 97 C-121.20774314 97.70473515 -122.43836132 98.37155135 -123.6875 99 C-127.43082705 101.26012199 -127.48451961 102.16078302 -129 106 C-132.125 107.3125 -132.125 107.3125 -135 108 C-135.99 107.01 -135.99 107.01 -137 106 C-137.33 106.33 -137.66 106.66 -138 107 C-137.89195624 113.15849413 -136.36057225 118.49557977 -134.3125 124.25 C-134.08103271 124.93521729 -133.84956543 125.62043457 -133.61108398 126.32641602 C-131.71999493 131.38845949 -129.37698081 133.84122784 -125 137 C-125.375 138.9375 -125.375 138.9375 -126 141 C-128.22890995 142.11445498 -129.53055106 142.16480286 -132 142.1875 C-132.70125 142.20167969 -133.4025 142.21585938 -134.125 142.23046875 C-136 142 -136 142 -138 140 C-138 139.01 -138 138.02 -138 137 C-138.66 137 -139.32 137 -140 137 C-140.30292969 135.80503906 -140.60585937 134.61007813 -140.91796875 133.37890625 C-144.07647334 121.12219696 -144.07647334 121.12219696 -150 110 C-151.94391132 116.68837283 -153.46906264 122.05534023 -152 129 C-151.90500444 131.67412501 -151.95303824 134.3231798 -152 137 C-150.8553125 137.4021875 -150.8553125 137.4021875 -149.6875 137.8125 C-147.12619116 138.94424112 -145.80307062 139.91223401 -144 142 C-145 145 -145 145 -147 146 C-153.3213448 146.45973417 -153.3213448 146.45973417 -155.9375 144.6875 C-157 143 -157 143 -157 140 C-158.32 139.67 -159.64 139.34 -161 139 C-161.04898438 137.87464844 -161.09796875 136.74929687 -161.1484375 135.58984375 C-161.62049129 125.62765555 -162.50169542 115.86262629 -164 106 C-164.33 108.97 -164.66 111.94 -165 115 C-165.66 115 -166.32 115 -167 115 C-167.495 115.99 -167.495 115.99 -168 117 C-168.99 116.67 -169.98 116.34 -171 116 C-172.02002763 112.93991711 -172.12904068 110.83616385 -172.1328125 107.6328125 C-172.13410156 106.58222656 -172.13539063 105.53164062 -172.13671875 104.44921875 C-172.13285156 103.35222656 -172.12898438 102.25523437 -172.125 101.125 C-172.12886719 100.03574219 -172.13273437 98.94648438 -172.13671875 97.82421875 C-172.13542969 96.77105469 -172.13414062 95.71789062 -172.1328125 94.6328125 C-172.13168457 93.67262207 -172.13055664 92.71243164 -172.12939453 91.72314453 C-172 89 -172 89 -171.49603271 86.6489563 C-170.99664888 83.98210408 -170.898896 81.6029737 -170.93408203 78.89355469 C-170.94384064 77.90192322 -170.95359924 76.91029175 -170.96365356 75.88861084 C-170.97822601 74.82708801 -170.99279846 73.76556519 -171.0078125 72.671875 C-171.02533439 70.40495244 -171.04224213 68.13802506 -171.05859375 65.87109375 C-171.0894923 62.31187519 -171.12496218 58.75289943 -171.17138672 55.19384766 C-171.21393939 51.74899346 -171.23722907 48.30442141 -171.2578125 44.859375 C-171.27643341 43.8059491 -171.29505432 42.75252319 -171.3142395 41.66717529 C-171.33582169 35.39273511 -170.86085801 29.68630431 -168 24 C-164.00367352 20.29608765 -159.59639924 19.19348821 -154.46484375 17.7890625 C-150.96356728 16.66821013 -148.14640652 14.88784391 -145 13 C-135.84214522 10.01086077 -125.33558363 12.40966886 -116.125 14 C-99.52233399 16.62945892 -84.1301257 16.90229428 -67.57202148 14.07470703 C-54.54994689 12.04620995 -41.13860568 12.75104187 -28 13 C-27.67 12.01 -27.34 11.02 -27 10 C-24.55859375 9.26171875 -24.55859375 9.26171875 -21.4375 8.6875 C-15.34191316 7.32888887 -11.67018526 4.99959456 -7 1 C-4.44744228 -0.27627886 -2.84227731 -0.19829842 0 0 Z M-164 56 C-163.979375 57.051875 -163.95875 58.10375 -163.9375 59.1875 C-164 63 -164 63 -164.49609375 65.3359375 C-165.07909909 68.41818277 -165.13238726 71.30160618 -165.125 74.4375 C-165.12757813 75.52933594 -165.13015625 76.62117188 -165.1328125 77.74609375 C-165.06881309 80.97317926 -165.06881309 80.97317926 -164.49609375 84.01171875 C-163.9685771 87.1892797 -163.90174369 90.15693184 -163.9375 93.375 C-163.94652344 94.43460938 -163.95554687 95.49421875 -163.96484375 96.5859375 C-163.97644531 97.38257813 -163.98804688 98.17921875 -164 99 C-160.55366999 95.62008748 -157.22226638 92.33057038 -155 88 C-154.93659815 85.04042934 -154.93659815 85.04042934 -156 82 C-156.34571305 80.56542695 -156.67803887 79.12758972 -157 77.6875 C-157.17789063 76.91921875 -157.35578125 76.1509375 -157.5390625 75.359375 C-157.99251712 73.0383022 -158.20433562 70.79429388 -158.375 68.4375 C-158.8243173 63.62217501 -160.63931261 60.18831634 -163 56 C-163.33 56 -163.66 56 -164 56 Z M-137 102 C-136 105 -136 105 -136 105 Z " fill="#FBFCFB" transform="translate(222,38)"/>
<path d="M0 0 C1.68236471 0.62599617 3.3523962 1.28752268 5 2 C5.66 2 6.32 2 7 2 C7 1.34 7 0.68 7 0 C8.62490954 -0.02698189 10.24994633 -0.04638757 11.875 -0.0625 C12.77992188 -0.07410156 13.68484375 -0.08570313 14.6171875 -0.09765625 C17 0 17 0 19 1 C18.67 1.99 18.34 2.98 18 4 C15.69 4.33 13.38 4.66 11 5 C11 5.66 11 6.32 11 7 C11.99 7 12.98 7 14 7 C14 6.34 14 5.68 14 5 C17.3 5.33 20.6 5.66 24 6 C24 10.38448044 23.28905989 12.32115375 21 16 C18.890625 16.67578125 18.890625 16.67578125 17 17 C19.14939315 22.10480873 20.89944089 25.16189403 25.3125 28.5625 C27.40625 30.27734375 27.40625 30.27734375 29 32 C29.3900614 36.52471225 28.51511614 38.28792768 25.875 41.9375 C22.27710864 44.51859598 20.34083735 44.56270114 16 44 C15.01 43.34 14.02 42.68 13 42 C10.61700383 41.55058745 8.21774516 41.18393057 5.8125 40.875 C4.54019531 40.70742187 3.26789063 40.53984375 1.95703125 40.3671875 C0.98121094 40.24601562 0.00539062 40.12484375 -1 40 C-2.0842148 41.54104688 -3.16732521 43.08287078 -4.25 44.625 C-5.21486328 45.99591797 -5.21486328 45.99591797 -6.19921875 47.39453125 C-7.538641 49.33248058 -8.81733255 51.31268561 -10.0625 53.3125 C-12 56 -12 56 -14.9375 58.125 C-18.93145286 61.19572757 -20.03459665 65.62205419 -21.78515625 70.19140625 C-23.70451346 74.62876263 -26.68891401 77.01926639 -30.48046875 79.85546875 C-34.53416308 83.96857715 -34.87160872 89.91094977 -35.8125 95.375 C-36.02406738 96.541521 -36.23563477 97.70804199 -36.45361328 98.90991211 C-37.91396747 107.39682115 -38.64950088 115.38851414 -38 124 C-37.96648437 124.89847656 -37.93296875 125.79695313 -37.8984375 126.72265625 C-37.58467737 131.8006163 -36.25146893 134.20661958 -33 138 C-33.125 140.25 -33.125 140.25 -34 142 C-36.88861709 143.44430855 -38.79647701 143.37688506 -42 143 C-45.01192918 140.72432017 -46.70625764 139.17496945 -47.6328125 135.46875 C-48.12257263 130.84207986 -48.10560233 126.27342014 -48.0625 121.625 C-48.05798828 120.69816406 -48.05347656 119.77132812 -48.04882812 118.81640625 C-48.03711574 116.54420291 -48.02071372 114.27213612 -48 112 C-49.49026845 116.86695266 -50.50214198 121.56468743 -51.1875 126.625 C-51.36667969 127.89601563 -51.54585938 129.16703125 -51.73046875 130.4765625 C-52.09326103 135.21915145 -51.94009573 137.83200227 -48.9375 141.5625 C-47 144 -47 144 -47 148 C-50.50696424 149.75348212 -54.43103758 149.46011466 -58.14453125 148.37109375 C-60 147 -60 147 -60.86328125 144.2421875 C-61.01152344 143.13101563 -61.15976563 142.01984375 -61.3125 140.875 C-61.47363281 139.77929688 -61.63476562 138.68359375 -61.80078125 137.5546875 C-61.98054672 134.34710747 -61.7158333 131.5183815 -61.25561523 128.35205078 C-60.70202343 123.25816017 -60.85759291 118.11768474 -60.875 113 C-60.87113281 111.86304688 -60.86726563 110.72609375 -60.86328125 109.5546875 C-60.87015805 103.62688964 -60.90556178 97.83700385 -62 92 C-63.89788303 89.96663749 -63.89788303 89.96663749 -66 89 C-64.68 89 -63.36 89 -62 89 C-62.165 88.175 -62.33 87.35 -62.5 86.5 C-63.05896045 82.58727683 -63.06807187 78.94816827 -63 75 C-62.01 74.67 -61.02 74.34 -60 74 C-57.73654295 70.60481443 -57.83856692 69.46217234 -57.8125 65.5 C-57.42818678 59.14345928 -55.13624562 55.57399689 -51.5078125 50.4765625 C-49.53078496 47.22932037 -49.77193174 44.72511494 -50 41 C-47.76040926 38.0405408 -45.39068068 36.45314886 -42 35 C-42.50603992 32.83125748 -42.99983813 31.00032373 -44 29 C-44.06950541 27.45976004 -44.08452357 25.91665012 -44.0625 24.375 C-44.05347656 23.55773437 -44.04445313 22.74046875 -44.03515625 21.8984375 C-44.02355469 21.27195312 -44.01195312 20.64546875 -44 20 C-40.01803543 18.94595055 -37.01804691 19.15901344 -33 20 C-32.67 18.35 -32.34 16.7 -32 15 C-36.21811497 15.06887495 -40.43527005 15.15683738 -44.65258789 15.26245117 C-46.08704628 15.29569001 -47.52163513 15.32372535 -48.95629883 15.34643555 C-51.01960807 15.38000271 -53.08172303 15.43231413 -55.14453125 15.48828125 C-57.00621948 15.52755737 -57.00621948 15.52755737 -58.90551758 15.56762695 C-61.94883398 15.75097852 -61.94883398 15.75097852 -63.84643555 17.30932617 C-65.23870767 19.20259875 -65.23870767 19.20259875 -66.3125 22.5625 C-68 26 -68 26 -71.1875 27.4375 C-72.115625 27.623125 -73.04375 27.80875 -74 28 C-74.44844853 32.12612615 -74.44844853 32.12612615 -71.5 34.75 C-70.675 35.4925 -69.85 36.235 -69 37 C-69.309375 37.721875 -69.61875 38.44375 -69.9375 39.1875 C-70.92560539 41.80307309 -71.5287754 44.25118982 -72 47 C-70.6696875 47.2784375 -70.6696875 47.2784375 -69.3125 47.5625 C-65.60881973 49.16975748 -64.02587273 50.53332677 -61.84375 53.85546875 C-60.27392308 57.84544552 -60.87791608 61.93523244 -62 66 C-64 68 -64 68 -66.609375 68.125 C-68.69272485 68.0420806 -70.77605843 67.95875142 -72.859375 67.875 C-76.26755635 68.01064901 -78.78627965 68.90100755 -82 70 C-85.26307807 70.34848407 -88.50401567 70.50019122 -91.78125 70.65625 C-95.09908854 71.01058227 -97.88258386 71.83566385 -101 73 C-101.66 71.68 -102.32 70.36 -103 69 C-102.01 67.68 -101.02 66.36 -100 65 C-100.886875 64.896875 -101.77375 64.79375 -102.6875 64.6875 C-108.96321257 63.38499362 -112.52500067 60.21249899 -116 55 C-115.92187766 51.01576085 -115.2189585 49.32843774 -113 46 C-112.39390987 42.2624442 -112.89046211 41.15464173 -115.125 38 C-117 35 -117 35 -116.625 32.3125 C-114.52846165 29.32896466 -112.27771701 28.50228697 -109 27 C-106.63307034 24.15173402 -106.63307034 24.15173402 -107.375 20.8125 C-107.58125 19.884375 -107.7875 18.95625 -108 18 C-111.45551308 17.31814594 -114.91475869 16.65740143 -118.375 16 C-119.34050781 15.80921875 -120.30601563 15.6184375 -121.30078125 15.421875 C-129.36632105 13.90620309 -137.70188733 12.39460941 -145.4375 15.875 C-146.24058594 16.22304688 -147.04367188 16.57109375 -147.87109375 16.9296875 C-150.20645439 18.04963203 -150.20645439 18.04963203 -153 20 C-156.1875 20.125 -156.1875 20.125 -159 20 C-159 19.67 -159 19.34 -159 19 C-157.989375 18.7525 -156.97875 18.505 -155.9375 18.25 C-153.13476253 17.46137549 -150.81298344 16.425883 -148.3125 14.9375 C-138.63496139 9.27705289 -126.61432077 12.1888777 -116.125 14 C-99.52233399 16.62945892 -84.1301257 16.90229428 -67.57202148 14.07470703 C-54.54994689 12.04620995 -41.13860568 12.75104187 -28 13 C-27.67 12.01 -27.34 11.02 -27 10 C-24.55859375 9.26171875 -24.55859375 9.26171875 -21.4375 8.6875 C-15.34191316 7.32888887 -11.67018526 4.99959456 -7 1 C-4.44744228 -0.27627886 -2.84227731 -0.19829842 0 0 Z " fill="#7E7F7E" transform="translate(222,38)"/>
<path d="M0 0 C0 4.02580163 -1.07721703 6.47489789 -3 10 C-6.1875 11.4375 -6.1875 11.4375 -9 12 C-9.44844853 16.12612615 -9.44844853 16.12612615 -6.5 18.75 C-5.675 19.4925 -4.85 20.235 -4 21 C-4.309375 21.721875 -4.61875 22.44375 -4.9375 23.1875 C-5.92560539 25.80307309 -6.5287754 28.25118982 -7 31 C-6.113125 31.185625 -5.22625 31.37125 -4.3125 31.5625 C-0.60881973 33.16975748 0.97412727 34.53332677 3.15625 37.85546875 C4.72607692 41.84544552 4.12208392 45.93523244 3 50 C1 52 1 52 -1.609375 52.125 C-3.69272485 52.0420806 -5.77605843 51.95875142 -7.859375 51.875 C-11.26755635 52.01064901 -13.78627965 52.90100755 -17 54 C-20.26307807 54.34848407 -23.50401567 54.50019122 -26.78125 54.65625 C-30.09908854 55.01058227 -32.88258386 55.83566385 -36 57 C-36.66 55.68 -37.32 54.36 -38 53 C-37.01 51.68 -36.02 50.36 -35 49 C-35.886875 48.896875 -36.77375 48.79375 -37.6875 48.6875 C-43.96321257 47.38499362 -47.52500067 44.21249899 -51 39 C-50.92187766 35.01576085 -50.2189585 33.32843774 -48 30 C-47.39390987 26.2624442 -47.89046211 25.15464173 -50.125 22 C-52 19 -52 19 -51.625 16.3125 C-49.52846165 13.32896466 -47.27771701 12.50228697 -44 11 C-41.70986347 7.5647952 -41.82157027 6.014669 -42 2 C-41.19892822 1.97494385 -40.39785645 1.9498877 -39.57250977 1.92407227 C-35.90237974 1.80720265 -32.23244983 1.68489255 -28.5625 1.5625 C-27.30244141 1.52318359 -26.04238281 1.48386719 -24.74414062 1.44335938 C-16.53492488 1.16471759 -8.18175175 -0.26392748 0 0 Z " fill="#B0B0B0" transform="translate(157,54)"/>
<path d="M0 0 C0.33 0 0.66 0 1 0 C1.33 4.62 1.66 9.24 2 14 C3.65 12.68 5.3 11.36 7 10 C10.02047927 8.85690141 13.05360945 8.00251133 16.16015625 7.125 C19.27479425 5.89114065 20.70014458 4.37341157 23 2 C26.25 1.75 26.25 1.75 29 2 C29.07467599 5.88315143 28.99801636 9.25743863 28 13 C28.020625 13.845625 28.04125 14.69125 28.0625 15.5625 C28 18 28 18 26 21 C25.34 21 24.68 21 24 21 C24.020625 21.804375 24.04125 22.60875 24.0625 23.4375 C24 26 24 26 23 27 C22.59257905 30.46307804 23.07295718 32.15758751 24.5625 35.375 C26.19462365 39.49079008 25.9561375 41.74084207 25 46 C23.02 46.66 21.04 47.32 19 48 C16.525 45.525 16.525 45.525 14 43 C14.33 43.969375 14.66 44.93875 15 45.9375 C16.73366969 52.04249399 16.96347337 58.25827034 14 64 C12.68775906 61.37551811 12.47542584 58.90538013 12 56 C11.67273294 54.5611068 11.33895946 53.12368378 11 51.6875 C10.27029259 48.52898546 9.82582498 45.47976153 9.5625 42.25 C9.20973947 38.51988406 8.27028105 36.05994402 6 33 C4.72304291 42.41755851 4.43319204 51.61148933 6 61 C6.06388388 62.95740193 6.08638169 64.91670147 6.0625 66.875 C6.05347656 67.84179688 6.04445313 68.80859375 6.03515625 69.8046875 C6.02355469 70.52914062 6.01195312 71.25359375 6 72 C6.33 72 6.66 72 7 72 C7.06058594 72.89203125 7.12117188 73.7840625 7.18359375 74.703125 C7.26738281 75.87359375 7.35117187 77.0440625 7.4375 78.25 C7.51871094 79.41015625 7.59992187 80.5703125 7.68359375 81.765625 C7.8874142 84.79844414 7.8874142 84.79844414 8.51367188 86.86328125 C9.09936484 89.43656682 9.11231626 91.78307383 9.09765625 94.421875 C9.09443359 95.44667969 9.09121094 96.47148437 9.08789062 97.52734375 C9.07951172 98.59082031 9.07113281 99.65429688 9.0625 100.75 C9.05798828 101.82894531 9.05347656 102.90789062 9.04882812 104.01953125 C9.03705727 106.67974383 9.02061399 109.33984365 9 112 C10.485 111.505 10.485 111.505 12 111 C12.33 112.32 12.66 113.64 13 115 C15.47266765 114.65555119 15.47266765 114.65555119 18 114 C18.33 113.34 18.66 112.68 19 112 C21.62187494 113.04874998 22.79371361 113.64931313 24.25 116.125 C24.4975 116.74375 24.745 117.3625 25 118 C21.30513897 120.46324069 19.36706908 120.38991688 15 120 C13.0625 118.6875 13.0625 118.6875 12 117 C12 116.01 12 115.02 12 114 C10.68 113.67 9.36 113.34 8 113 C7.95101562 111.87464844 7.90203125 110.74929687 7.8515625 109.58984375 C7.37950871 99.62765555 6.49830458 89.86262629 5 80 C4.67 82.97 4.34 85.94 4 89 C3.34 89 2.68 89 2 89 C1.505 89.99 1.505 89.99 1 91 C0.01 90.67 -0.98 90.34 -2 90 C-3.02002763 86.93991711 -3.12904068 84.83616385 -3.1328125 81.6328125 C-3.13410156 80.58222656 -3.13539062 79.53164062 -3.13671875 78.44921875 C-3.13285156 77.35222656 -3.12898438 76.25523437 -3.125 75.125 C-3.12886719 74.03574219 -3.13273437 72.94648438 -3.13671875 71.82421875 C-3.13542969 70.77105469 -3.13414063 69.71789062 -3.1328125 68.6328125 C-3.13168457 67.67262207 -3.13055664 66.71243164 -3.12939453 65.72314453 C-3 63 -3 63 -2.49702454 60.65093994 C-1.99561419 57.97660774 -1.89254587 55.57932623 -1.91821289 52.86181641 C-1.9247438 51.86372955 -1.93127472 50.8656427 -1.93800354 49.83731079 C-1.94943893 48.76951385 -1.96087433 47.70171692 -1.97265625 46.6015625 C-1.98530287 44.32552235 -1.9976638 42.04948061 -2.00976562 39.7734375 C-2.03457092 36.19656347 -2.0625488 32.61977325 -2.09594727 29.04296875 C-2.12622389 25.58332801 -2.14394705 22.12379378 -2.16015625 18.6640625 C-2.17361588 17.60031403 -2.1870755 16.53656555 -2.20094299 15.44058228 C-2.21964496 9.88110824 -1.87508527 5.24838912 0 0 Z " fill="#969795" transform="translate(53,64)"/>
<path d="M0 0 C0.680625 1.7015625 0.680625 1.7015625 1.375 3.4375 C2.57095806 7.04721692 2.57095806 7.04721692 5 8 C4.51467624 14.47098344 1.55192206 19.59819101 -3.125 24 C-5 25 -5 25 -8 25 C-8.04898438 25.60585937 -8.09796875 26.21171875 -8.1484375 26.8359375 C-8.78926839 34.01766295 -9.7127566 41.13826979 -12 48 C-12.0845387 50.4410776 -12.11605786 52.85259213 -12.09765625 55.29296875 C-12.09553383 56.35201164 -12.09553383 56.35201164 -12.09336853 57.43244934 C-12.08777764 59.68417626 -12.07522688 61.93580321 -12.0625 64.1875 C-12.05748382 65.71549335 -12.05292112 67.24348827 -12.04882812 68.77148438 C-12.0378112 72.51436135 -12.02055287 76.25716373 -12 80 C-14.97 80.495 -14.97 80.495 -18 81 C-19.13657094 75.41406219 -19.0410202 70.11331706 -18.87304688 64.453125 C-18.7938902 59.29397246 -19.57159 54.96302456 -21 50 C-24.2843509 60.02900008 -26.60806616 69.07459543 -26.078125 79.69116211 C-25.99298328 81.45891716 -25.98946564 83.23022712 -26 85 C-26.99 85.99 -26.99 85.99 -28 87 C-29.32 87 -30.64 87 -32 87 C-32.06445654 80.33232936 -32.05775801 73.66771758 -32 67 C-31.99419922 66.03916504 -31.98839844 65.07833008 -31.98242188 64.08837891 C-31.95372366 61.26590995 -31.88837923 58.44655552 -31.8125 55.625 C-31.80677979 54.75270752 -31.80105957 53.88041504 -31.79516602 52.98168945 C-31.64605311 48.74333071 -31.45509197 46.04716473 -28.5078125 42.87109375 C-25.37188298 39.28089406 -25.33249217 37.13157434 -25.0625 32.4375 C-24.46644369 25.64327458 -24.46644369 25.64327458 -22.69140625 23.1953125 C-21.15825152 22.08654723 -19.57913831 21.04223128 -18 20 C-16.8865865 18.01106096 -16.8865865 18.01106096 -16 15.8125 C-15.06640625 13.703125 -15.06640625 13.703125 -14 12 C-12.989375 11.690625 -11.97875 11.38125 -10.9375 11.0625 C-7.86380724 10.34066571 -7.86380724 10.34066571 -7.01953125 7.9296875 C-6.51574611 6.29813968 -6.05414444 4.65282228 -5.640625 2.99609375 C-5.42921875 2.33738281 -5.2178125 1.67867188 -5 1 C-3 0 -3 0 0 0 Z " fill="#E5E3CA" transform="translate(195,94)"/>
<path d="M0 0 C0.99245476 0.00212242 0.99245476 0.00212242 2.00495911 0.00428772 C4.11402953 0.00987629 6.22299302 0.0224266 8.33203125 0.03515625 C9.76367034 0.04017273 11.1953111 0.04473538 12.62695312 0.04882812 C16.13284713 0.05984195 19.63867875 0.0770987 23.14453125 0.09765625 C23.14453125 1.74765625 23.14453125 3.39765625 23.14453125 5.09765625 C19.16256668 6.1517057 16.16257816 5.93864281 12.14453125 5.09765625 C12.09030178 6.53473715 12.05163402 7.97241087 12.01953125 9.41015625 C11.99632812 10.21066406 11.973125 11.01117188 11.94921875 11.8359375 C11.98635803 14.38154201 11.98635803 14.38154201 14.14453125 17.09765625 C14.08203125 19.09765625 14.08203125 19.09765625 13.14453125 21.09765625 C8.96595982 24.09765625 8.96595982 24.09765625 6.14453125 24.09765625 C6.28890625 25.35578125 6.43328125 26.61390625 6.58203125 27.91015625 C6.62456904 32.4475204 5.31525939 34.74799103 2.70703125 38.41015625 C-0.87808594 43.5112248 -1.62274874 47.29083813 -1.58984375 53.46875 C-1.90469888 56.58488974 -2.6404171 57.90848138 -4.85546875 60.09765625 C-5.84546875 60.09765625 -6.83546875 60.09765625 -7.85546875 60.09765625 C-7.67757812 58.14472656 -7.67757812 58.14472656 -7.49609375 56.15234375 C-7.36473151 54.42586866 -7.23458731 52.69930059 -7.10546875 50.97265625 C-7.02425781 50.11671875 -6.94304687 49.26078125 -6.859375 48.37890625 C-6.55320558 43.95645913 -6.58778399 41.62482535 -8.640625 37.58203125 C-11.13324579 34.78607566 -13.52464057 33.72606114 -16.85546875 32.09765625 C-17.91796875 30.16015625 -17.91796875 30.16015625 -17.85546875 28.09765625 C-17.33984375 27.45828125 -16.82421875 26.81890625 -16.29296875 26.16015625 C-15.58140625 25.13921875 -15.58140625 25.13921875 -14.85546875 24.09765625 C-15.7652516 20.27656829 -16.52838542 19.3157118 -19.85546875 17.09765625 C-18.98046875 12.22265625 -18.98046875 12.22265625 -17.85546875 11.09765625 C-16.1892976 11.05701793 -14.5215878 11.05493525 -12.85546875 11.09765625 C-12.66984375 10.01484375 -12.66984375 10.01484375 -12.48046875 8.91015625 C-11.85499375 6.09551876 -11.14550565 3.67773005 -9.85546875 1.09765625 C-6.37764292 -0.06161903 -3.66743618 -0.01547441 0 0 Z " fill="#FAFAFA" transform="translate(166.85546875,52.90234375)"/>
<path d="M0 0 C0.88425659 0.30973755 0.88425659 0.30973755 1.78637695 0.62573242 C0.13637695 1.28573242 -1.51362305 1.94573242 -3.21362305 2.62573242 C-3.63108913 5.49938033 -3.63108913 5.49938033 -3.21362305 8.62573242 C0.70356612 12.29019971 5.66807337 12.30235376 10.78637695 12.62573242 C1.6877854 21.9919296 1.6877854 21.9919296 -3.21362305 23.62573242 C-3.48174805 24.43010742 -3.74987305 25.23448242 -4.02612305 26.06323242 C-5.21362305 28.62573242 -5.21362305 28.62573242 -8.33862305 29.93823242 C-9.76174805 30.27854492 -9.76174805 30.27854492 -11.21362305 30.62573242 C-11.87362305 29.96573242 -12.53362305 29.30573242 -13.21362305 28.62573242 C-13.54362305 28.95573242 -13.87362305 29.28573242 -14.21362305 29.62573242 C-14.10557929 35.78422655 -12.5741953 41.12131219 -10.52612305 46.87573242 C-10.17892212 47.90355835 -10.17892212 47.90355835 -9.82470703 48.95214844 C-7.93361798 54.01419191 -5.59060385 56.46696026 -1.21362305 59.62573242 C-1.58862305 61.56323242 -1.58862305 61.56323242 -2.21362305 63.62573242 C-4.442533 64.7401874 -5.74417411 64.79053528 -8.21362305 64.81323242 C-9.26549805 64.83450195 -9.26549805 64.83450195 -10.33862305 64.85620117 C-12.21362305 64.62573242 -12.21362305 64.62573242 -14.21362305 62.62573242 C-14.21362305 61.63573242 -14.21362305 60.64573242 -14.21362305 59.62573242 C-14.87362305 59.62573242 -15.53362305 59.62573242 -16.21362305 59.62573242 C-16.51655273 58.43077148 -16.81948242 57.23581055 -17.1315918 56.00463867 C-19.32977192 47.5816724 -21.4297731 40.00652948 -26.21362305 32.62573242 C-27.20362305 35.92573242 -28.19362305 39.22573242 -29.21362305 42.62573242 C-29.54362305 42.62573242 -29.87362305 42.62573242 -30.21362305 42.62573242 C-30.77266436 36.33854317 -29.27976497 33.14949522 -25.90112305 28.12573242 C-25.45470459 27.4408374 -25.00828613 26.75594238 -24.54833984 26.05029297 C-23.12606387 23.89253597 -21.67521744 21.75702219 -20.21362305 19.62573242 C-19.73828125 18.92657715 -19.26293945 18.22742188 -18.77319336 17.50708008 C-17.37633436 15.47011355 -15.95760168 13.45099031 -14.52612305 11.43823242 C-14.09968506 10.8272168 -13.67324707 10.21620117 -13.23388672 9.58666992 C-10.27323119 5.53613682 -5.50382568 -0.93055749 0 0 Z M-13.21362305 24.62573242 C-12.21362305 27.62573242 -12.21362305 27.62573242 -12.21362305 27.62573242 Z " fill="#FBC9A2" transform="translate(98.213623046875,115.374267578125)"/>
<path d="M0 0 C0.495 2.475 0.495 2.475 1 5 C0.360625 5.12375 -0.27875 5.2475 -0.9375 5.375 C-1.618125 5.58125 -2.29875 5.7875 -3 6 C-4.35091528 8.70183055 -4.33858058 11.11808206 -4.5625 14.125 C-4.64628906 15.22070312 -4.73007812 16.31640625 -4.81640625 17.4453125 C-4.90728516 18.70988281 -4.90728516 18.70988281 -5 20 C-6.98 20 -8.96 20 -11 20 C-11 15.38 -11 10.76 -11 6 C-15.95 6 -20.9 6 -26 6 C-26.33 6.66 -26.66 7.32 -27 8 C-24.03 8 -21.06 8 -18 8 C-17 12 -17 12 -18 14 C-17.71887936 16.00800456 -17.38932033 18.01014051 -17 20 C-21.12486838 20.08676908 -25.24950384 20.14031295 -29.375 20.1875 C-30.550625 20.21263672 -31.72625 20.23777344 -32.9375 20.26367188 C-34.05898438 20.27333984 -35.18046875 20.28300781 -36.3359375 20.29296875 C-37.37282715 20.3086792 -38.4097168 20.32438965 -39.47802734 20.34057617 C-40.31027832 20.22818604 -41.1425293 20.1157959 -42 20 C-42.66 19.01 -43.32 18.02 -44 17 C-44.33 17.99 -44.66 18.98 -45 20 C-47.64 20 -50.28 20 -53 20 C-53.02703562 17.41659616 -53.04685611 14.83347692 -53.0625 12.25 C-53.07087891 11.52039063 -53.07925781 10.79078125 -53.08789062 10.0390625 C-53.10391684 6.51329442 -52.95292713 3.38965084 -52 0 C-50.35 0 -48.7 0 -47 0 C-47 1.98 -47 3.96 -47 6 C-46.34 6 -45.68 6 -45 6 C-44.566875 5.071875 -44.566875 5.071875 -44.125 4.125 C-43 2 -43 2 -41 0 C-37.875 -0.125 -37.875 -0.125 -35 0 C-34.75 2.3125 -34.75 2.3125 -35 5 C-37 6.8125 -37 6.8125 -39 8 C-38.34 9.98 -37.68 11.96 -37 14 C-36.34 14 -35.68 14 -35 14 C-35 15.65 -35 17.3 -35 19 C-34.34 19 -33.68 19 -33 19 C-33.165 18.030625 -33.33 17.06125 -33.5 16.0625 C-34.26662568 10.68516842 -34.73070109 5.19210327 -33 0 C-21.86694656 -1.06732813 -11.1409379 -0.82950855 0 0 Z M-17 1 C-16 3 -16 3 -16 3 Z M-27 12 C-27 12.99 -27 13.98 -27 15 C-25.02 15 -23.04 15 -21 15 C-20.67 14.34 -20.34 13.68 -20 13 C-22.31 12.67 -24.62 12.34 -27 12 Z M-46 13 C-45 17 -45 17 -45 17 Z " fill="#F0FDFA" transform="translate(316,146)"/>
<path d="M0 0 C1.2065625 0.0309375 1.2065625 0.0309375 2.4375 0.0625 C2.7675 1.0525 3.0975 2.0425 3.4375 3.0625 C4.241875 2.5675 4.241875 2.5675 5.0625 2.0625 C8.0417758 0.80806808 10.23066197 0.78957761 13.4375 1.0625 C14.4275 1.7225 15.4175 2.3825 16.4375 3.0625 C17.0975 2.4025 17.7575 1.7425 18.4375 1.0625 C25.37456294 0.39117133 25.37456294 0.39117133 28.8125 2.5625 C32.29707366 7.92338255 32.80856634 13.75437224 32.4375 20.0625 C31.9425 21.5475 31.9425 21.5475 31.4375 23.0625 C29.1275 23.0625 26.8175 23.0625 24.4375 23.0625 C23.1175 20.0925 21.7975 17.1225 20.4375 14.0625 C20.19 15.50625 19.9425 16.95 19.6875 18.4375 C19.265625 20.8984375 19.265625 20.8984375 18.4375 23.0625 C16.49609375 24.3984375 16.49609375 24.3984375 14.4375 25.0625 C11.73816074 24.13701225 10.72563232 23.63876463 9.4375 21.0625 C9.2099985 19.19193209 9.02787189 17.31564042 8.875 15.4375 C8.79121094 14.43460938 8.70742188 13.43171875 8.62109375 12.3984375 C8.56050781 11.62757812 8.49992187 10.85671875 8.4375 10.0625 C8.21835937 10.89394531 7.99921875 11.72539063 7.7734375 12.58203125 C5.1510506 21.56850343 5.1510506 21.56850343 1.1875 24.3125 C0.28 24.56 -0.6275 24.8075 -1.5625 25.0625 C-3.5625 23.6875 -3.5625 23.6875 -5.5625 21.0625 C-6.60105601 14.44472447 -5.33348109 7.46130028 -3.5625 1.0625 C-2.5625 0.0625 -2.5625 0.0625 0 0 Z " fill="#F8FDFC" transform="translate(388.5625,108.9375)"/>
<path d="M0 0 C0.33 0 0.66 0 1 0 C0.99097656 0.79019531 0.98195312 1.58039063 0.97265625 2.39453125 C1.279031 14.05009245 4.95010214 24.54599178 9.96582031 35.01611328 C10.8515625 36.87890625 10.8515625 36.87890625 12 40 C11.34 40.99 10.68 41.98 10 43 C9.71125 41.906875 9.4225 40.81375 9.125 39.6875 C8.18106796 35.95986155 8.18106796 35.95986155 6 33 C4.72304291 42.41755851 4.43319204 51.61148933 6 61 C6.06388388 62.95740193 6.08638169 64.91670147 6.0625 66.875 C6.05347656 67.84179688 6.04445313 68.80859375 6.03515625 69.8046875 C6.02355469 70.52914062 6.01195312 71.25359375 6 72 C6.33 72 6.66 72 7 72 C7.06058594 72.89203125 7.12117188 73.7840625 7.18359375 74.703125 C7.26738281 75.87359375 7.35117187 77.0440625 7.4375 78.25 C7.51871094 79.41015625 7.59992187 80.5703125 7.68359375 81.765625 C7.8874142 84.79844414 7.8874142 84.79844414 8.51367188 86.86328125 C9.09936484 89.43656682 9.11231626 91.78307383 9.09765625 94.421875 C9.09443359 95.44667969 9.09121094 96.47148437 9.08789062 97.52734375 C9.07951172 98.59082031 9.07113281 99.65429688 9.0625 100.75 C9.05798828 101.82894531 9.05347656 102.90789062 9.04882812 104.01953125 C9.03705727 106.67974383 9.02061399 109.33984365 9 112 C10.485 111.505 10.485 111.505 12 111 C12.33 112.32 12.66 113.64 13 115 C15.47266765 114.65555119 15.47266765 114.65555119 18 114 C18.33 113.34 18.66 112.68 19 112 C21.62187494 113.04874998 22.79371361 113.64931313 24.25 116.125 C24.4975 116.74375 24.745 117.3625 25 118 C21.30513897 120.46324069 19.36706908 120.38991688 15 120 C13.0625 118.6875 13.0625 118.6875 12 117 C12 116.01 12 115.02 12 114 C10.68 113.67 9.36 113.34 8 113 C7.95101562 111.87464844 7.90203125 110.74929687 7.8515625 109.58984375 C7.37950871 99.62765555 6.49830458 89.86262629 5 80 C4.67 82.97 4.34 85.94 4 89 C3.34 89 2.68 89 2 89 C1.505 89.99 1.505 89.99 1 91 C0.01 90.67 -0.98 90.34 -2 90 C-3.02002763 86.93991711 -3.12904068 84.83616385 -3.1328125 81.6328125 C-3.13410156 80.58222656 -3.13539062 79.53164062 -3.13671875 78.44921875 C-3.13285156 77.35222656 -3.12898438 76.25523437 -3.125 75.125 C-3.12886719 74.03574219 -3.13273437 72.94648438 -3.13671875 71.82421875 C-3.13542969 70.77105469 -3.13414063 69.71789062 -3.1328125 68.6328125 C-3.13168457 67.67262207 -3.13055664 66.71243164 -3.12939453 65.72314453 C-3 63 -3 63 -2.49702454 60.65093994 C-1.99561419 57.97660774 -1.89254587 55.57932623 -1.91821289 52.86181641 C-1.9247438 51.86372955 -1.93127472 50.8656427 -1.93800354 49.83731079 C-1.94943893 48.76951385 -1.96087433 47.70171692 -1.97265625 46.6015625 C-1.98530287 44.32552235 -1.9976638 42.04948061 -2.00976562 39.7734375 C-2.03457092 36.19656347 -2.0625488 32.61977325 -2.09594727 29.04296875 C-2.12622389 25.58332801 -2.14394705 22.12379378 -2.16015625 18.6640625 C-2.17361588 17.60031403 -2.1870755 16.53656555 -2.20094299 15.44058228 C-2.21964496 9.88110824 -1.87508527 5.24838912 0 0 Z " fill="#626B52" transform="translate(53,64)"/>
<path d="M0 0 C2.4375 0.375 2.4375 0.375 5 1 C6.49641368 3.99282736 6.14222979 7.06278606 6.1328125 10.34375 C6.13424759 11.43109436 6.13424759 11.43109436 6.13571167 12.54040527 C6.13639243 14.07364997 6.13454536 15.60689755 6.13037109 17.14013672 C6.12502134 19.49062558 6.13031953 21.84092335 6.13671875 24.19140625 C6.13605795 25.67968792 6.13477675 27.16796948 6.1328125 28.65625 C6.13483673 29.36148804 6.13686096 30.06672607 6.13894653 30.79333496 C6.11496243 35.77007514 6.11496243 35.77007514 5 38 C-1.42296141 39.95954755 -8.18419185 41.4344683 -14.3125 38.3125 C-17 36 -17 36 -17.875 33.25 C-17.91625 32.5075 -17.9575 31.765 -18 31 C-18.66 31 -19.32 31 -20 31 C-19.34737809 25.64850037 -17.9894157 20.70660318 -14.75390625 16.3046875 C-12.24930614 14.4415774 -10.39046764 14.70386585 -7.3125 14.8125 C-6.31863281 14.83957031 -5.32476562 14.86664063 -4.30078125 14.89453125 C-3.16189453 14.94673828 -3.16189453 14.94673828 -2 15 C-2.02320313 14.33613281 -2.04640625 13.67226562 -2.0703125 12.98828125 C-2.24956063 4.21792619 -2.24956063 4.21792619 0 0 Z M-8 24 C-9.29633621 25.06645115 -9.29633621 25.06645115 -9.0625 27.5625 C-9.041875 28.366875 -9.02125 29.17125 -9 30 C-7.02 29.67 -5.04 29.34 -3 29 C-3.33 27.68 -3.66 26.36 -4 25 C-5.94603274 24.40929986 -5.94603274 24.40929986 -8 24 Z " fill="#F5FDFB" transform="translate(269,94)"/>
<path d="M0 0 C1.62490954 -0.02698189 3.24994633 -0.04638757 4.875 -0.0625 C6.23238281 -0.07990234 6.23238281 -0.07990234 7.6171875 -0.09765625 C10 0 10 0 12 1 C11.67 1.99 11.34 2.98 11 4 C8.69 4.33 6.38 4.66 4 5 C4 5.66 4 6.32 4 7 C4.99 7 5.98 7 7 7 C7 6.34 7 5.68 7 5 C10.3 5.33 13.6 5.66 17 6 C17 10.38448044 16.28905989 12.32115375 14 16 C11.890625 16.67578125 11.890625 16.67578125 10 17 C12.32114353 22.34252031 14.36256363 25.36525258 19 29 C20.29655884 32.61184249 19.94528228 35.32390223 19 39 C17.58800422 39.39222105 16.17007236 39.76311059 14.75 40.125 C13.96109375 40.33382812 13.1721875 40.54265625 12.359375 40.7578125 C9.54448401 41.04675826 8.32105606 40.57500233 6 39 C5.25 36.875 5.25 36.875 5 35 C6.32 35.33 7.64 35.66 9 36 C9.33 35.01 9.66 34.02 10 33 C10.33 34.65 10.66 36.3 11 38 C12.485 37.505 12.485 37.505 14 37 C14.33 36.01 14.66 35.02 15 34 C15.99 34 16.98 34 18 34 C18 33.34 18 32.68 18 32 C17.278125 32.12375 16.55625 32.2475 15.8125 32.375 C13 32 13 32 10.25 29.125 C8 26 8 26 7 24 C6.38125 23.896875 5.7625 23.79375 5.125 23.6875 C3 23 3 23 1.3125 20.625 C0 18 0 18 -1 15 C-2.093125 14.896875 -3.18625 14.79375 -4.3125 14.6875 C-8.02351413 13.99561601 -8.72623352 13.72851977 -11 11 C-11.99 10.67 -12.98 10.34 -14 10 C-13.65693498 7.51277859 -13.18161626 6.20431829 -11.5 4.3125 C-7.8205581 2.380793 -4.10335782 2.2542679 0 2 C0 1.34 0 0.68 0 0 Z " fill="#F5F7F5" transform="translate(229,38)"/>
<path d="M0 0 C1.8125 1.5 1.8125 1.5 3 3 C1.906875 3.226875 0.81375 3.45375 -0.3125 3.6875 C-4.12488211 4.65747195 -4.12488211 4.65747195 -5.9375 7.625 C-6.288125 8.40875 -6.63875 9.1925 -7 10 C-5.02 10.495 -5.02 10.495 -3 11 C-3 14 -3 14 -5 17 C-3.6078125 16.87625 -3.6078125 16.87625 -2.1875 16.75 C-1.135625 16.8325 -0.08375 16.915 1 17 C2.69921875 19.015625 2.69921875 19.015625 4 21 C-0.10520809 20.9482668 -4.20828913 20.85322236 -8.3125 20.75 C-9.47974609 20.73582031 -10.64699219 20.72164062 -11.84960938 20.70703125 C-12.96787109 20.67480469 -14.08613281 20.64257812 -15.23828125 20.609375 C-16.7857605 20.5779541 -16.7857605 20.5779541 -18.36450195 20.54589844 C-21 20 -21 20 -22.35961914 17.99072266 C-23.95475285 15.59611665 -23.95475285 15.59611665 -27.55908203 15.51416016 C-29.04195905 15.50123024 -30.5251425 15.5111142 -32.0078125 15.5390625 C-32.80669891 15.53997894 -33.60558533 15.54089539 -34.42868042 15.5418396 C-36.12845765 15.54788834 -37.8282236 15.5636725 -39.52783203 15.58837891 C-42.06715553 15.62418437 -44.60498533 15.62940274 -47.14453125 15.62890625 C-55.84584486 15.6675402 -64.33715465 16.14704743 -72.96421814 17.27593994 C-79.71614928 18.14422141 -86.38574343 18.38259708 -93.1875 18.375 C-94.42346924 18.37628906 -95.65943848 18.37757812 -96.93286133 18.37890625 C-105.76546086 18.27865878 -114.15356827 17.34619314 -122.7722168 15.42333984 C-130.38898834 13.72433608 -138.0992301 12.57338103 -145.4375 15.875 C-146.24058594 16.22304688 -147.04367188 16.57109375 -147.87109375 16.9296875 C-150.20645439 18.04963203 -150.20645439 18.04963203 -153 20 C-156.1875 20.125 -156.1875 20.125 -159 20 C-159 19.67 -159 19.34 -159 19 C-157.989375 18.7525 -156.97875 18.505 -155.9375 18.25 C-153.13476253 17.46137549 -150.81298344 16.425883 -148.3125 14.9375 C-138.63496139 9.27705289 -126.61432077 12.1888777 -116.125 14 C-99.52233399 16.62945892 -84.1301257 16.90229428 -67.57202148 14.07470703 C-54.54994689 12.04620995 -41.13860568 12.75104187 -28 13 C-27.67 12.01 -27.34 11.02 -27 10 C-24.55859375 9.26171875 -24.55859375 9.26171875 -21.4375 8.6875 C-15.34191316 7.32888887 -11.67018526 4.99959456 -7 1 C-4.45132831 -0.27433584 -2.82594567 -0.27570202 0 0 Z " fill="#548568" transform="translate(222,38)"/>
<path d="M0 0 C2 1.125 2 1.125 3 3 C2.66666667 9.33333333 2.66666667 9.33333333 0 12 C0.639375 12.680625 1.27875 13.36125 1.9375 14.0625 C4.40275063 17.57361453 5.07793802 19.71340892 5 24 C3.3125 26.4375 3.3125 26.4375 0 28 C-4.09924029 28.59198838 -7.91034718 28.69992644 -12 28 C-14.75 25.5 -14.75 25.5 -16 23 C-15.505 22.05125 -15.01 21.1025 -14.5 20.125 C-12.85575631 17.27721834 -12.85575631 17.27721834 -13 15 C-13.99 14.67 -14.98 14.34 -16 14 C-16.7914936 10.33034786 -17.29934425 7.82319668 -16 4.25 C-11.48669402 -0.82746923 -6.3960493 -1.72201327 0 0 Z M-7 8 C-6.01 8.99 -5.02 9.98 -4 11 C-3.67 10.01 -3.34 9.02 -3 8 C-4.32 8 -5.64 8 -7 8 Z " fill="#F5FDFB" transform="translate(232,106)"/>
<path d="M0 0 C3.32452409 1.47264104 4.69590135 2.29009052 6.14453125 5.671875 C8.74192874 17.64116868 8.74192874 17.64116868 8 22 C5.5 23.9375 5.5 23.9375 3 25 C2.01 24.34 1.02 23.68 0 23 C-3.1039493 22.83295522 -3.1039493 22.83295522 -6.5 23 C-12.66666667 23.22222222 -12.66666667 23.22222222 -16 21 C-16 20.34 -16 19.68 -16 19 C-16.66 19 -17.32 19 -18 19 C-17.66540218 11.47154898 -16.03720385 7.2059374 -10.75 1.625 C-7.15029679 -0.50209735 -4.09206935 -0.86026458 0 0 Z M-6 8 C-7.76486718 9.76975869 -7.76486718 9.76975869 -9 12 C-8.67 12.99 -8.34 13.98 -8 15 C-5.9375006 13.18777466 -5.9375006 13.18777466 -4 11 C-4 10.01 -4 9.02 -4 8 C-4.66 8 -5.32 8 -6 8 Z " fill="#F3FDFA" transform="translate(295,108)"/>
<path d="M0 0 C3.35047653 2.0458662 4.75848798 3.35459416 6.14453125 7.05859375 C6.36496094 8.17363281 6.58539063 9.28867188 6.8125 10.4375 C7.04582031 11.54996094 7.27914063 12.66242188 7.51953125 13.80859375 C8.33101703 19.19870662 8.33101703 19.19870662 8 22 C5 24 5 24 2.5 23.6875 C0.65095738 23.17901328 -1.18072387 22.60642538 -3 22 C-3.99 22.33 -4.98 22.66 -6 23 C-10.29519335 23.47724371 -12.32966061 23.43292752 -16 21.0625 C-18.39721689 17.39176163 -18.57217794 15.59185869 -17.85546875 11.35546875 C-14.97294387 3.41865367 -8.52768368 -1.67480634 0 0 Z M-6 8 C-7.38938077 9.96147874 -8.7260411 11.96166576 -10 14 C-9.01 14.495 -9.01 14.495 -8 15 C-5.49962266 12.82575883 -4.56371414 11.26954202 -4 8 C-4.66 8 -5.32 8 -6 8 Z " fill="#F5FDFA" transform="translate(348,108)"/>
<path d="M0 0 C2.875 2.25 2.875 2.25 5 5 C4.67 6.32 4.34 7.64 4 9 C-0.455 9.495 -0.455 9.495 -5 10 C-5.33 12.31 -5.66 14.62 -6 17 C-5.236875 16.814375 -4.47375 16.62875 -3.6875 16.4375 C-1 16 -1 16 2 17 C2.125 19.875 2.125 19.875 2 23 C0 25 0 25 -3.125 25.125 C-4.548125 25.063125 -4.548125 25.063125 -6 25 C-5.91621094 25.84304687 -5.83242188 26.68609375 -5.74609375 27.5546875 C-5.64425781 28.65039062 -5.54242188 29.74609375 -5.4375 30.875 C-5.33308594 31.96554688 -5.22867187 33.05609375 -5.12109375 34.1796875 C-5 37 -5 37 -6 39 C-8.25 39 -8.25 39 -11 38 C-14.23411464 33.67062609 -15.54096782 29.40967822 -15 24 C-15.66 24 -16.32 24 -17 24 C-18.63053667 19.11940713 -16.76685182 15.61560849 -15 11 C-14.75894531 10.32839844 -14.51789063 9.65679687 -14.26953125 8.96484375 C-12.83271452 5.22594498 -11.51904245 2.97946138 -8 1 C-4.90786415 -0.03071195 -3.21050376 -0.45864339 0 0 Z " fill="#F4FDFA" transform="translate(323,97)"/>
<path d="M0 0 C0.66 0.33 1.32 0.66 2 1 C2.4140625 3.94140625 2.4140625 3.94140625 2.625 7.5625 C2.69976562 8.76003906 2.77453125 9.95757812 2.8515625 11.19140625 C2.90054688 12.11824219 2.94953125 13.04507813 3 14 C3.66 14 4.32 14 5 14 C5.98238408 16.41540306 6.96100218 18.83221822 7.9375 21.25 C8.35418945 22.27287109 8.35418945 22.27287109 8.77929688 23.31640625 C10.90400883 28.58978772 10.90400883 28.58978772 11.5 31.13671875 C12.13994205 33.52150278 13.12491442 34.2658919 15.0625 35.75 C16.031875 36.4925 17.00125 37.235 18 38 C17.625 39.9375 17.625 39.9375 17 42 C14.77109005 43.11445498 13.46944894 43.16480286 11 43.1875 C10.29875 43.20167969 9.5975 43.21585938 8.875 43.23046875 C7 43 7 43 5 41 C5 40.01 5 39.02 5 38 C4.34 38 3.68 38 3 38 C2.69707031 36.80503906 2.39414063 35.61007813 2.08203125 34.37890625 C-0.11614888 25.95593998 -2.21615006 18.38079706 -7 11 C-7.99 14.3 -8.98 17.6 -10 21 C-10.33 21 -10.66 21 -11 21 C-11.57443767 15.48539837 -10.62179359 12.33265184 -7.51171875 7.734375 C-5.37132195 5.27872596 -3.02124169 4.12418295 0 3 C0 2.01 0 1.02 0 0 Z " fill="#CFD9C5" transform="translate(79,137)"/>
<path d="M0 0 C1.23037957 2.46075913 0.93505185 3.45838217 0.51171875 6.1484375 C0.3835376 6.98294434 0.25535645 7.81745117 0.12329102 8.67724609 C-0.02052002 9.56750488 -0.16433105 10.45776367 -0.3125 11.375 C-0.4556665 12.28459473 -0.59883301 13.19418945 -0.74633789 14.13134766 C-1.0323476 15.94215166 -1.32094982 17.75254833 -1.61230469 19.5625 C-1.92670818 21.53920305 -2.22041816 23.51918981 -2.5078125 25.5 C-3.29528072 30.76887825 -4.48756641 35.61432857 -6.125 40.6875 C-8.07456031 47.10241351 -8.31534094 52.86020227 -8.02783203 59.4909668 C-7.95528462 61.32590105 -7.9706554 63.16386664 -8 65 C-8.99 65.99 -8.99 65.99 -10 67 C-11.32 67 -12.64 67 -14 67 C-14.06445654 60.33232936 -14.05775801 53.66771758 -14 47 C-13.99419922 46.03916504 -13.98839844 45.07833008 -13.98242188 44.08837891 C-13.95372366 41.26590995 -13.88837923 38.44655552 -13.8125 35.625 C-13.80677979 34.75270752 -13.80105957 33.88041504 -13.79516602 32.98168945 C-13.64605311 28.74333071 -13.45509197 26.04716473 -10.5078125 22.87109375 C-7.37188298 19.28089406 -7.33249217 17.13157434 -7.0625 12.4375 C-6.37867053 5.5450406 -6.37867053 5.5450406 -4.55078125 2.9140625 C-2.875 1.5625 -2.875 1.5625 0 0 Z " fill="#F7F8F7" transform="translate(177,114)"/>
<path d="M0 0 C3.29714793 0.32971479 4.6226839 0.6226839 7 3 C8.093125 2.979375 9.18625 2.95875 10.3125 2.9375 C14.31835698 3.00539588 15.87402899 3.58853665 19 6 C21 9 21 9 20.625 11.1875 C20.315625 12.0846875 20.315625 12.0846875 20 13 C17.08517222 13.80967438 15.53886783 14.21845993 12.6875 13.0625 C12.130625 12.711875 11.57375 12.36125 11 12 C10.87625 12.804375 10.7525 13.60875 10.625 14.4375 C8.5106383 26.4893617 8.5106383 26.4893617 7 28 C4.1875 28.375 4.1875 28.375 1 28 C-1.6112955 25.80466308 -2.88114146 24.08955554 -3.25610352 20.65234375 C-3.24149243 17.85521856 -3.08677546 15.10150723 -2.875 12.3125 C-2.82601563 11.35021484 -2.77703125 10.38792969 -2.7265625 9.39648438 C-2.28755493 2.28755493 -2.28755493 2.28755493 0 0 Z " fill="#F3FDFB" transform="translate(360,106)"/>
<path d="M0 0 C4.09341499 -0.02469575 8.18680121 -0.04285793 12.28027344 -0.05493164 C13.67318477 -0.0599643 15.0660908 -0.06679098 16.45898438 -0.07543945 C18.45961246 -0.08755152 20.46027888 -0.09270412 22.4609375 -0.09765625 C23.66540527 -0.10289307 24.86987305 -0.10812988 26.11083984 -0.11352539 C29 0 29 0 31 1 C30.34 2.32 29.68 3.64 29 5 C28.01 5 27.02 5 26 5 C26 8.63 26 12.26 26 16 C26.99 16.33 27.98 16.66 29 17 C29 17.99 29 18.98 29 20 C25.04 20 21.08 20 17 20 C17 18.68 17 17.36 17 16 C17.99 16 18.98 16 20 16 C19.34 12.7 18.68 9.4 18 6 C16.02 6 14.04 6 12 6 C11.67 10.62 11.34 15.24 11 20 C9.02 20 7.04 20 5 20 C5 15.05 5 10.1 5 5 C3.35 5.33 1.7 5.66 0 6 C-1 3 -1 3 0 0 Z " fill="#F2FDFA" transform="translate(214,146)"/>
<path d="M0 0 C0.99 0 1.98 0 3 0 C4.63706376 16.29508083 4.63706376 16.29508083 3 22 C1.0625 24.3125 1.0625 24.3125 -1 26 C-1.33 26.70125 -1.66 27.4025 -2 28.125 C-3.29835742 30.55942016 -4.42515586 31.09123148 -7 32 C-8.32 32 -9.64 32 -11 32 C-11.05834353 28.77090994 -11.09371115 25.54195662 -11.125 22.3125 C-11.15013672 20.94448242 -11.15013672 20.94448242 -11.17578125 19.54882812 C-11.24046572 10.65471319 -11.24046572 10.65471319 -9 7 C-7.00428677 6.32060826 -5.00405227 5.65438441 -3 5 C-1.94895617 3.36504293 -0.94011682 1.70116376 0 0 Z " fill="#959595" transform="translate(97,74)"/>
<path d="M0 0 C0.680625 1.7015625 0.680625 1.7015625 1.375 3.4375 C2.57095806 7.04721692 2.57095806 7.04721692 5 8 C4.49080812 12.37905014 3.67804488 15.46115497 1 19 C-1.5 20.875 -1.5 20.875 -4 22 C-4.99 21.67 -5.98 21.34 -7 21 C-9.08143382 21.97558457 -9.08143382 21.97558457 -11.125 23.4375 C-14.9373297 26 -14.9373297 26 -16 26 C-16.08142927 24.2507786 -16.13938541 22.50045458 -16.1875 20.75 C-16.22230469 19.77546875 -16.25710937 18.8009375 -16.29296875 17.796875 C-15.95613719 14.58125642 -15.24572426 13.28809642 -13 11 C-10.3125 10.25 -10.3125 10.25 -8 10 C-7.80664062 9.36191406 -7.61328125 8.72382812 -7.4140625 8.06640625 C-7.15367187 7.24011719 -6.89328125 6.41382812 -6.625 5.5625 C-6.36976563 4.73878906 -6.11453125 3.91507812 -5.8515625 3.06640625 C-4.5336171 -0.13172731 -3.38699903 0 0 0 Z " fill="#FAFBFA" transform="translate(195,94)"/>
<path d="M0 0 C2.4375 1.1875 2.4375 1.1875 4 3 C4.75 5.6875 4.75 5.6875 5 8 C2.625 8.625 2.625 8.625 0 9 C-0.66 8.34 -1.32 7.68 -2 7 C-3.32 6.67 -4.64 6.34 -6 6 C-5.67 8.97 -5.34 11.94 -5 15 C-4.01 15.33 -3.02 15.66 -2 16 C-1.67 15.01 -1.34 14.02 -1 13 C0.65 13 2.3 13 4 13 C4.33 13.99 4.66 14.98 5 16 C2.6742562 18.59154309 0.7814433 20.65937087 -2.4375 22.0625 C-6.20472972 21.97061635 -8.10888236 20.31289411 -11 18 C-13.70697106 13.9395434 -13.08247368 11.3248607 -12.52734375 6.609375 C-12 4 -12 4 -10.4375 1.3125 C-6.92018332 -0.58143975 -3.90799978 -0.6580205 0 0 Z " fill="#EFFDF9" transform="translate(257,146)"/>
<path d="M0 0 C2.69512161 2.3495932 3.81297889 4.54631623 5.0625 7.875 C5.38347656 8.71804687 5.70445313 9.56109375 6.03515625 10.4296875 C6.69778614 12.19491206 7.34819375 13.96475818 7.98828125 15.73828125 C8.81864296 18.16298925 8.81864296 18.16298925 11.125 19.3125 C11.74375 19.539375 12.3625 19.76625 13 20 C12.22225866 14.94468132 11.14051606 9.98283716 10 5 C12.66379233 7.66379233 13.12332013 10.22590241 14.25 13.8125 C16.11692693 19.45403713 17.83800377 22.87879298 23 26 C22.625 27.9375 22.625 27.9375 22 30 C19.77109005 31.11445498 18.46944894 31.16480286 16 31.1875 C14.948125 31.20876953 14.948125 31.20876953 13.875 31.23046875 C12 31 12 31 10 29 C10 28.01 10 27.02 10 26 C9.34 26 8.68 26 8 26 C7.67386719 24.77023438 7.34773438 23.54046875 7.01171875 22.2734375 C6.57064726 20.64053454 6.12922228 19.00772703 5.6875 17.375 C5.47416016 16.56675781 5.26082031 15.75851563 5.04101562 14.92578125 C3.78160858 10.3016897 2.23719736 6.26445245 0 2 C0 1.34 0 0.68 0 0 Z " fill="#BCC59E" transform="translate(74,149)"/>
<path d="M0 0 C3 1 3 1 4.8125 3.9375 C7.32628688 7.45680164 8.86733198 8.06075727 13 9 C13 9.66 13 10.32 13 11 C12.01 11 11.02 11 10 11 C9.67 12.32 9.34 13.64 9 15 C8.01 15 7.02 15 6 15 C5.67 14.01 5.34 13.02 5 12 C4.01 12.33 3.02 12.66 2 13 C1.34 12.67 0.68 12.34 0 12 C0.33 12.99 0.66 13.98 1 15 C-2.21451269 16.60725635 -5.43612536 16.05748185 -9 16 C-9 14.35 -9 12.7 -9 11 C-8.34 11 -7.68 11 -7 11 C-7 9.35 -7 7.7 -7 6 C-6.21625 5.938125 -5.4325 5.87625 -4.625 5.8125 C-3.75875 5.544375 -2.8925 5.27625 -2 5 C-0.62533375 2.52363988 -0.62533375 2.52363988 0 0 Z " fill="#7F7E7F" transform="translate(234,61)"/>
<path d="M0 0 C0.33 0 0.66 0 1 0 C1.33 2.31 1.66 4.62 2 7 C2.61488281 6.62746094 3.22976562 6.25492187 3.86328125 5.87109375 C4.67152344 5.39800781 5.47976562 4.92492187 6.3125 4.4375 C7.11300781 3.96183594 7.91351563 3.48617187 8.73828125 2.99609375 C11 2 11 2 14 3 C16.16715557 2.12516085 16.16715557 2.12516085 18 1 C12.85714286 6.57142857 12.85714286 6.57142857 9 7 C9 8.65 9 10.3 9 12 C8.34 12 7.68 12 7 12 C3.4560838 16.87288478 0.53802785 22.15549417 -1 28 C-1.66 28 -2.32 28 -3 28 C-3.97091244 24.88168909 -3.98248796 22.58988469 -3.4765625 19.375 C-3.3425 18.50359375 -3.2084375 17.6321875 -3.0703125 16.734375 C-2.92335937 15.83203125 -2.77640625 14.9296875 -2.625 14 C-2.48578125 13.09765625 -2.3465625 12.1953125 -2.203125 11.265625 C-1.60664466 7.46165605 -0.98148282 3.72601928 0 0 Z " fill="#D8D3C4" transform="translate(178,112)"/>
<path d="M0 0 C1.04449911 3.13349732 0.93423645 3.98968256 0 7 C-0.66 7 -1.32 7 -2 7 C-2.66 9.31 -3.32 11.62 -4 14 C-3.505 14.37125 -3.01 14.7425 -2.5 15.125 C-0.40244486 17.74694393 -0.78256165 19.73842472 -1 23 C-0.34 23 0.32 23 1 23 C1.33 21.02 1.66 19.04 2 17 C2.7734375 16.87625 2.7734375 16.87625 3.5625 16.75 C8.96803834 15.08675743 13.25991835 12.18889145 17 8 C15.64844718 12.42326378 13.80109562 14.40412982 10 17 C9.01 17.33 8.02 17.66 7 18 C6.731875 18.804375 6.46375 19.60875 6.1875 20.4375 C5 23 5 23 1.875 24.3125 C0.451875 24.6528125 0.451875 24.6528125 -1 25 C-1.66 24.34 -2.32 23.68 -3 23 C-3.66 25.31 -4.32 27.62 -5 30 C-5.33 30 -5.66 30 -6 30 C-6.66 26.37 -7.32 22.74 -8 19 C-9.65 19.99 -11.3 20.98 -13 22 C-13 18.03902338 -11.54284033 16.4986288 -9.3125 13.25 C-8.58675781 12.1878125 -7.86101562 11.125625 -7.11328125 10.03125 C-4.76810063 6.667368 -2.41190414 3.31636819 0 0 Z M-3 19 C-2 22 -2 22 -2 22 Z " fill="#D4B497" transform="translate(88,121)"/>
<path d="M0 0 C0.66 0 1.32 0 2 0 C1.5453059 2.97976203 1.08633791 5.95876531 0.625 8.9375 C0.49867188 9.76830078 0.37234375 10.59910156 0.2421875 11.45507812 C-0.39794611 15.56793657 -1.11859769 19.61178484 -2.08984375 23.66015625 C-3.55862264 30.07161573 -3.21986466 36.46079952 -3 43 C-2.97035156 43.92039063 -2.94070312 44.84078125 -2.91015625 45.7890625 C-2.56423122 50.83450555 -1.23319123 53.22794356 2 57 C1.875 59.25 1.875 59.25 1 61 C-1.88861709 62.44430855 -3.79647701 62.37688506 -7 62 C-9.875 59.625 -9.875 59.625 -12 57 C-12 56.34 -12 55.68 -12 55 C-9.36 55 -6.72 55 -4 55 C-4.16153564 54.30253662 -4.32307129 53.60507324 -4.48950195 52.88647461 C-5.44274618 47.4966102 -5.18461297 42.02187178 -5.1875 36.5625 C-5.19974609 35.34755859 -5.21199219 34.13261719 -5.22460938 32.88085938 C-5.22654297 31.70458984 -5.22847656 30.52832031 -5.23046875 29.31640625 C-5.23457764 28.24849854 -5.23868652 27.18059082 -5.24291992 26.08032227 C-4.98128755 22.76271863 -4.12764598 20.1200414 -3 17 C-2.68009526 15.57270879 -2.39250159 14.13750942 -2.1484375 12.6953125 C-2.01953125 11.94765625 -1.890625 11.2 -1.7578125 10.4296875 C-1.63148438 9.66914063 -1.50515625 8.90859375 -1.375 8.125 C-1.2409375 7.34125 -1.106875 6.5575 -0.96875 5.75 C-0.64163578 3.83404526 -0.32023116 1.91711718 0 0 Z " fill="#2A4C30" transform="translate(187,119)"/>
<path d="M0 0 C0.33 0 0.66 0 1 0 C1.14516371 4.99463543 1.28743198 9.98934282 1.42724609 14.98413086 C1.47499152 16.67620969 1.52346974 18.36826803 1.57275391 20.06030273 C1.85066581 29.61990492 2.05563403 39.15419155 1.91992188 48.71850586 C2.00520181 52.21316326 2.44237232 55.55172884 3 59 C2.34 59 1.68 59 1 59 C0.01956036 61.94131891 -0.11621202 63.82501665 -0.09765625 66.88671875 C-0.09443359 67.82451172 -0.09121094 68.76230469 -0.08789062 69.72851562 C-0.07951172 70.70498047 -0.07113281 71.68144531 -0.0625 72.6875 C-0.05798828 73.67556641 -0.05347656 74.66363281 -0.04882812 75.68164062 C-0.03704303 78.12115474 -0.02059011 80.56054689 0 83 C0.66 81.02 1.32 79.04 2 77 C2.99 77 3.98 77 5 77 C5 79.97 5 82.94 5 86 C4.34 86 3.68 86 3 86 C2.505 86.99 2.505 86.99 2 88 C1.01 87.67 0.02 87.34 -1 87 C-2.02002763 83.93991711 -2.12904068 81.83616385 -2.1328125 78.6328125 C-2.13410156 77.58222656 -2.13539062 76.53164062 -2.13671875 75.44921875 C-2.13285156 74.35222656 -2.12898438 73.25523437 -2.125 72.125 C-2.12886719 71.03574219 -2.13273437 69.94648438 -2.13671875 68.82421875 C-2.13542969 67.77105469 -2.13414063 66.71789062 -2.1328125 65.6328125 C-2.13168457 64.67262207 -2.13055664 63.71243164 -2.12939453 62.72314453 C-2 60 -2 60 -1.49801636 57.65391541 C-0.99373479 54.96661285 -0.88614306 52.54538106 -0.90234375 49.81420898 C-0.90564697 48.80643906 -0.9089502 47.79866913 -0.91235352 46.76036072 C-0.92065186 45.68315262 -0.9289502 44.60594452 -0.9375 43.49609375 C-0.94128662 42.38065689 -0.94507324 41.26522003 -0.94897461 40.11598206 C-0.96117924 36.55644861 -0.97980973 32.99699657 -1 29.4375 C-1.02655648 24.74870008 -1.04656891 20.05994046 -1.0625 15.37109375 C-1.07079834 14.29186142 -1.07909668 13.21262909 -1.08764648 12.10069275 C-1.09094971 11.09607498 -1.09425293 10.09145721 -1.09765625 9.05639648 C-1.10551147 7.73332741 -1.10551147 7.73332741 -1.11352539 6.38352966 C-1.00545253 4.11447904 -0.63756297 2.17381632 0 0 Z " fill="#375A3A" transform="translate(52,67)"/>
<path d="M0 0 C0.66 0.99 1.32 1.98 2 3 C1.47810136 5.45352348 0.86279478 7.73734247 0.125 10.125 C-1.85514263 17.069172 -2.34581064 23.39083158 -2.02685547 30.59033203 C-1.95546619 32.39216323 -1.97058034 34.19699513 -2 36 C-2.66 36.66 -3.32 37.32 -4 38 C-5.32 38 -6.64 38 -8 38 C-7.67 31.73 -7.34 25.46 -7 19 C-6.34 19 -5.68 19 -5 19 C-4.67 16.69 -4.34 14.38 -4 12 C-4.66 12 -5.32 12 -6 12 C-4.68139111 7.38486888 -2.78644563 3.90102388 0 0 Z " fill="#FDFDF8" transform="translate(171,143)"/>
<path d="M0 0 C2.125 0.375 2.125 0.375 4 1 C5.07119518 5.19684677 4.96069292 8.88246513 4.625 13.1875 C4.53476563 14.41855469 4.44453125 15.64960937 4.3515625 16.91796875 C4 20 4 20 3 22 C1.125 22.75 1.125 22.75 -1 23 C-1.99 22.34 -2.98 21.68 -4 21 C-4.57949091 14.62559996 -3.68300644 8.1710236 -2 2 C-1.34 1.34 -0.68 0.68 0 0 Z " fill="#ECFDF8" transform="translate(243,110)"/>
<path d="M0 0 C-0.33 0.33 -0.66 0.66 -1 1 C-0.34 1.45375 0.32 1.9075 1 2.375 C1.66 2.91125 2.32 3.4475 3 4 C3 4.66 3 5.32 3 6 C1.88625 5.505 1.88625 5.505 0.75 5 C-2.13883312 3.77217129 -2.13883312 3.77217129 -6 4 C-6 5.32 -6 6.64 -6 8 C-4.25021843 8.16894443 -2.50016388 8.33506309 -0.75 8.5 C0.22453125 8.5928125 1.1990625 8.685625 2.203125 8.78125 C4.46302153 8.95800168 6.73320193 9 9 9 C9.33 6.69 9.66 4.38 10 2 C11.32 2.33 12.64 2.66 14 3 C13.01 4.65 12.02 6.3 11 8 C12.3921875 7.87625 12.3921875 7.87625 13.8125 7.75 C14.864375 7.8325 15.91625 7.915 17 8 C18.69921875 10.015625 18.69921875 10.015625 20 12 C15.89479191 11.9482668 11.79171087 11.85322236 7.6875 11.75 C6.52025391 11.73582031 5.35300781 11.72164062 4.15039062 11.70703125 C3.03212891 11.67480469 1.91386719 11.64257812 0.76171875 11.609375 C-0.7857605 11.5779541 -0.7857605 11.5779541 -2.36450195 11.54589844 C-5 11 -5 11 -6.69140625 9 C-7.12324219 8.34 -7.55507812 7.68 -8 7 C-10.72489473 6.30250411 -10.72489473 6.30250411 -13.6875 6.25 C-14.68136719 6.19328125 -15.67523438 6.1365625 -16.69921875 6.078125 C-17.83810547 6.03945313 -17.83810547 6.03945313 -19 6 C-16.35261084 4.5393715 -15.10551666 4 -12 4 C-11.67 3.01 -11.34 2.02 -11 1 C-9.00390625 0.234375 -9.00390625 0.234375 -6.5625 -0.25 C-5.75941406 -0.42015625 -4.95632812 -0.5903125 -4.12890625 -0.765625 C-2 -1 -2 -1 0 0 Z " fill="#7F7B73" transform="translate(206,47)"/>
<path d="M0 0 C0.66 0 1.32 0 2 0 C2 0.99 2 1.98 2 3 C2.66 3 3.32 3 4 3 C4.66 11.25 5.32 19.5 6 28 C4.02 28.33 2.04 28.66 0 29 C-1.23733997 23.23556696 -1.14780223 17.55147457 -1.125 11.6875 C-1.12886719 10.67365234 -1.13273438 9.65980469 -1.13671875 8.61523438 C-1.13542969 7.65294922 -1.13414062 6.69066406 -1.1328125 5.69921875 C-1.13112061 4.38183716 -1.13112061 4.38183716 -1.12939453 3.0378418 C-1 1 -1 1 0 0 Z " fill="#F6EDCF" transform="translate(177,146)"/>
<path d="M0 0 C0.33 0 0.66 0 1 0 C2.19388403 27.94514191 2.19388403 27.94514191 2 41 C0.02 41.66 -1.96 42.32 -4 43 C-4.08333357 38.1666528 -3.95261487 33.76307437 -3 29 C-2.67 29.99 -2.34 30.98 -2 32 C-1.34 32 -0.68 32 0 32 C-0.32484375 30.99582031 -0.6496875 29.99164063 -0.984375 28.95703125 C-3.62674867 19.66904112 -2.43157459 9.22695715 0 0 Z " fill="#8C7958" transform="translate(55,94)"/>
<path d="M0 0 C0.33 0 0.66 0 1 0 C1 1.98 1 3.96 1 6 C-28.56287644 13.97773316 -28.56287644 13.97773316 -40 12 C-41.9140625 10.46484375 -41.9140625 10.46484375 -43 9 C-42.42507812 9.16242188 -41.85015625 9.32484375 -41.2578125 9.4921875 C-34.37221176 11.04085203 -26.92416402 9.80950561 -20 9 C-20 8.01 -20 7.02 -20 6 C-13.34405447 3.05602409 -7.24158565 2.35000997 0 2 C0 1.34 0 0.68 0 0 Z " fill="#D6EEE0" transform="translate(159,121)"/>
<path d="M0 0 C3.3 0.33 6.6 0.66 10 1 C10 5.38448044 9.28905989 7.32115375 7 11 C4.8125 11.875 4.8125 11.875 3 12 C3.66 14.31 4.32 16.62 5 19 C2.34454264 16.69958987 1.40448801 14.79156697 0.4375 11.4375 C-0.60178953 7.84760436 -0.60178953 7.84760436 -3 5 C-3 4.01 -3 3.02 -3 2 C-2.01 2 -1.02 2 0 2 C0 1.34 0 0.68 0 0 Z " fill="#627152" transform="translate(236,43)"/>
<path d="M0 0 C0.33 0 0.66 0 1 0 C1.06058594 0.75925781 1.12117187 1.51851562 1.18359375 2.30078125 C1.26738281 3.29464844 1.35117188 4.28851563 1.4375 5.3125 C1.51871094 6.29863281 1.59992188 7.28476563 1.68359375 8.30078125 C1.91812559 11.09375599 1.91812559 11.09375599 3 14 C3.08178114 15.70016844 3.10749501 17.40336297 3.09765625 19.10546875 C3.09443359 20.08837891 3.09121094 21.07128906 3.08789062 22.08398438 C3.07951172 23.10814453 3.07113281 24.13230469 3.0625 25.1875 C3.05798828 26.22326172 3.05347656 27.25902344 3.04882812 28.32617188 C3.0370401 30.88417266 3.02058515 33.44205733 3 36 C2.34 36 1.68 36 1 36 C0.13036913 33.00293305 -0.11763099 30.35043474 -0.09765625 27.234375 C-0.09443359 26.34492188 -0.09121094 25.45546875 -0.08789062 24.5390625 C-0.07951172 23.61867187 -0.07113281 22.69828125 -0.0625 21.75 C-0.05798828 20.81414062 -0.05347656 19.87828125 -0.04882812 18.9140625 C-0.03706918 16.60930959 -0.02063426 14.30468773 0 12 C-1.49034994 16.85303026 -2.47208388 21.51017289 -3.125 26.5625 C-3.29257813 27.82191406 -3.46015625 29.08132812 -3.6328125 30.37890625 C-3.96154325 33.62075099 -4.07020815 36.7453507 -4 40 C-6.71001639 37.28998361 -6.3627648 35.79830667 -6.4375 32 C-6.35740991 24.2472791 -4.46708784 17.40028038 -2.19140625 10.03125 C-1.16745862 6.71337851 -0.47442562 3.44640219 0 0 Z " fill="#98B496" transform="translate(174,138)"/>
<path d="M0 0 C4.31269369 2.13485502 5.82016977 3.83489572 7.375 8.375 C7.71273437 9.31085938 8.05046875 10.24671875 8.3984375 11.2109375 C9.04343457 14.20137844 8.81762178 16.07992222 8 19 C5.53199953 17.84826645 3.95216435 16.95216435 2 15 C1.22960999 12.81254224 0.52938697 10.59991571 -0.125 8.375 C-0.47820312 7.18648437 -0.83140625 5.99796875 -1.1953125 4.7734375 C-1.46085937 3.85820312 -1.72640625 2.94296875 -2 2 C-1.34 1.34 -0.68 0.68 0 0 Z " fill="#EFE8CC" transform="translate(79,151)"/>
<path d="M0 0 C-2.06689547 4.25537303 -4.50004585 6.30325519 -8.37890625 8.7890625 C-10.29436811 10.07902557 -10.29436811 10.07902557 -12 13 C-12.66 13 -13.32 13 -14 13 C-14.35466362 9.92624858 -14.49562241 7.06336828 -14 4 C-9.65277051 -0.45591023 -5.85377147 -0.40370838 0 0 Z " fill="#DFE1DB" transform="translate(68,58)"/>
<path d="M0 0 C1.8125 1.5 1.8125 1.5 3 3 C1.906875 3.226875 0.81375 3.45375 -0.3125 3.6875 C-4.12488211 4.65747195 -4.12488211 4.65747195 -5.9375 7.625 C-6.288125 8.40875 -6.63875 9.1925 -7 10 C-6.01 10.33 -5.02 10.66 -4 11 C-4.66 11 -5.32 11 -6 11 C-6 11.66 -6 12.32 -6 13 C-9.0831351 11.80100302 -12.06279492 10.52299523 -15 9 C-13.81174509 5.43523526 -12.80760565 4.86271571 -9.75 2.8125 C-8.98171875 2.28269531 -8.2134375 1.75289062 -7.421875 1.20703125 C-4.68191777 -0.15852808 -3.0218477 -0.35161466 0 0 Z " fill="#7E8180" transform="translate(222,38)"/>
<path d="M0 0 C2.5 2.25 2.5 2.25 5 5 C5 6.32 5 7.64 5 9 C1.39429013 10.80285494 -2.59428575 10.44390976 -6.375 9.25 C-8.42645046 7.67196119 -8.66411682 6.51912388 -9 4 C-7.88625 3.71125 -6.7725 3.4225 -5.625 3.125 C-1.99708908 2.30758671 -1.99708908 2.30758671 0 0 Z " fill="#051408" transform="translate(170,177)"/>
<path d="M0 0 C2.96125343 1.37486766 5.60121183 2.76664549 8 5 C9.2384455 8.62007147 8.94329464 11.33163196 8 15 C6.58800422 15.39222105 5.17007236 15.76311059 3.75 16.125 C2.96109375 16.33382812 2.1721875 16.54265625 1.359375 16.7578125 C-1.45551599 17.04675826 -2.67894394 16.57500233 -5 15 C-5.75 12.875 -5.75 12.875 -6 11 C-4.68 11.33 -3.36 11.66 -2 12 C-1.67 11.01 -1.34 10.02 -1 9 C-0.67 10.65 -0.34 12.3 0 14 C0.99 13.67 1.98 13.34 3 13 C3.33 12.01 3.66 11.02 4 10 C4.99 10 5.98 10 7 10 C7 9.34 7 8.68 7 8 C6.01 7.67 5.02 7.34 4 7 C3.67 6.34 3.34 5.68 3 5 C2.01 4.34 1.02 3.68 0 3 C0 2.01 0 1.02 0 0 Z " fill="#EFEFEE" transform="translate(240,62)"/>
<path d="M0 0 C0.33 0 0.66 0 1 0 C1.02486762 4.42911406 1.04293889 8.85819025 1.05493164 13.28735352 C1.05993555 14.7915925 1.06674073 16.29582668 1.07543945 17.80004883 C1.08767884 19.97218009 1.09326786 22.14424659 1.09765625 24.31640625 C1.10289307 25.62037354 1.10812988 26.92434082 1.11352539 28.26782227 C1.00145975 31.95201033 0.59374786 35.36971466 0 39 C-0.66 39 -1.32 39 -2 39 C-2.19561869 36.9174133 -2.38119313 34.83388144 -2.5625 32.75 C-2.66691406 31.58984375 -2.77132812 30.4296875 -2.87890625 29.234375 C-3 26 -3 26 -2.52514648 24.10717773 C-1.92908778 21.71546101 -1.80625858 19.51335639 -1.71875 17.05078125 C-1.68136719 16.12072266 -1.64398438 15.19066406 -1.60546875 14.23242188 C-1.53473351 12.27410377 -1.46442603 10.31577016 -1.39453125 8.35742188 C-1.35714844 7.43123047 -1.31976563 6.50503906 -1.28125 5.55078125 C-1.25095703 4.70169189 -1.22066406 3.85260254 -1.18945312 2.9777832 C-1 1 -1 1 0 0 Z " fill="#739B83" transform="translate(163,142)"/>
<path d="M0 0 C1.00289062 0.10183594 2.00578125 0.20367187 3.0390625 0.30859375 C3.80992188 0.39238281 4.58078125 0.47617188 5.375 0.5625 C4.7871875 0.830625 4.199375 1.09875 3.59375 1.375 C1.36322615 2.5688015 -0.25869261 3.86585692 -2.125 5.5625 C-3.96296817 7.23338015 -5.47046989 8.48869458 -7.71875 9.5625 C-9.95813752 10.54314422 -9.95813752 10.54314422 -11.625 13.5625 C-11.625 12.5725 -11.625 11.5825 -11.625 10.5625 C-12.285 10.5625 -12.945 10.5625 -13.625 10.5625 C-13.955 12.5425 -14.285 14.5225 -14.625 16.5625 C-15.285 16.5625 -15.945 16.5625 -16.625 16.5625 C-16.625 13.9225 -16.625 11.2825 -16.625 8.5625 C-15.3875 8.48 -14.15 8.3975 -12.875 8.3125 C-9.73435789 7.92895256 -8.75217461 7.66358751 -6.1875 5.625 C-4.59281864 3.65116752 -4.59281864 3.65116752 -3.625 1.5625 C-4.945 1.2325 -6.265 0.9025 -7.625 0.5625 C-4.89657939 -0.80171031 -3.01546682 -0.31557211 0 0 Z " fill="#E8C2A5" transform="translate(103.625,127.4375)"/>
<path d="M0 0 C2 3 2 3 1.390625 6.65234375 C1.02368797 8.08419587 0.64291186 9.51255665 0.25 10.9375 C0.06695312 11.65357422 -0.11609375 12.36964844 -0.3046875 13.10742188 C-1.22391901 16.59985428 -2.19579265 19.85903903 -4 23 C-5.89885096 21.10114904 -5.12367506 18.42752097 -5.1328125 15.91015625 C-5 14 -5 14 -4 12 C-4.66 12 -5.32 12 -6 12 C-4.68139111 7.38486888 -2.78644563 3.90102388 0 0 Z " fill="#F6F4E8" transform="translate(171,143)"/>
<path d="M0 0 C0.33 0.66 0.66 1.32 1 2 C-1.18483632 5.10919014 -2.65850783 6.83608376 -6.125 8.5 C-9.20997491 9.70858055 -9.20997491 9.70858055 -10 12.5625 C-11 15 -11 15 -14.125 16.3125 C-15.548125 16.6528125 -15.548125 16.6528125 -17 17 C-17.66 16.34 -18.32 15.68 -19 15 C-19.66 17.31 -20.32 19.62 -21 22 C-21.33 22 -21.66 22 -22 22 C-22.19294408 17.17639811 -21.75747614 13.50353262 -20 9 C-19.01 9 -18.02 9 -17 9 C-17 10.98 -17 12.96 -17 15 C-16.34 15 -15.68 15 -15 15 C-14.67 13.02 -14.34 11.04 -14 9 C-13.2265625 8.87625 -13.2265625 8.87625 -12.4375 8.75 C-7.20376112 7.13961881 -2.86779773 4.72343155 0 0 Z M-19 11 C-18 14 -18 14 -18 14 Z " fill="#697651" transform="translate(104,129)"/>
<path d="M0 0 C0.33 0 0.66 0 1 0 C1.33 2.31 1.66 4.62 2 7 C2.61488281 6.62746094 3.22976562 6.25492187 3.86328125 5.87109375 C5.07564453 5.16146484 5.07564453 5.16146484 6.3125 4.4375 C7.11300781 3.96183594 7.91351563 3.48617187 8.73828125 2.99609375 C11 2 11 2 14 3 C16.16715557 2.12516085 16.16715557 2.12516085 18 1 C13.47704127 6.49216417 7.46158857 9.2225668 1 12 C0.34 12 -0.32 12 -1 12 C-1.14285714 3.42857143 -1.14285714 3.42857143 0 0 Z " fill="#EDEEE7" transform="translate(178,112)"/>
<path d="M0 0 C0.33 0 0.66 0 1 0 C1 9.24 1 18.48 1 28 C1.66 26.02 2.32 24.04 3 22 C3.99 22 4.98 22 6 22 C6 24.97 6 27.94 6 31 C5.34 31 4.68 31 4 31 C3.67 31.66 3.34 32.32 3 33 C2.01 32.67 1.02 32.34 0 32 C-1.02002763 28.93991711 -1.12904068 26.83616385 -1.1328125 23.6328125 C-1.13410156 22.58222656 -1.13539062 21.53164062 -1.13671875 20.44921875 C-1.13285156 19.35222656 -1.12898438 18.25523437 -1.125 17.125 C-1.12886719 16.03574219 -1.13273437 14.94648438 -1.13671875 13.82421875 C-1.13542969 12.77105469 -1.13414063 11.71789062 -1.1328125 10.6328125 C-1.13168457 9.67262207 -1.13055664 8.71243164 -1.12939453 7.72314453 C-1.00245897 5.05174972 -0.59594101 2.60332125 0 0 Z " fill="#2F4E23" transform="translate(51,122)"/>
<path d="M0 0 C2.46800047 1.15173355 4.04783565 2.04783565 6 4 C5.75 6.0625 5.75 6.0625 5 8 C1.78548731 9.60725635 -1.43612536 9.05748185 -5 9 C-5.66 7.68 -6.32 6.36 -7 5 C-4.69 4.01 -2.38 3.02 0 2 C0 1.34 0 0.68 0 0 Z " fill="#011102" transform="translate(91,171)"/>
<path d="M0 0 C0.33 0 0.66 0 1 0 C0.88521587 2.06309376 0.75773802 4.12548354 0.625 6.1875 C0.55539063 7.33605469 0.48578125 8.48460937 0.4140625 9.66796875 C0.02490426 12.79959117 -0.6809851 15.15285809 -2 18 C-2.66 18 -3.32 18 -4 18 C-5.18421779 14.9823848 -5.93649762 12.25327596 -6 9 C-4.47429626 5.60160972 -2.48338372 2.77169212 0 0 Z " fill="#DCE3D3" transform="translate(185,123)"/>
<path d="M0 0 C0.99 0.66 1.98 1.32 3 2 C2.75554295 6.15576993 2.34064564 8.52910749 -0.125 11.9375 C-3.72289136 14.51859598 -5.65916265 14.56270114 -10 14 C-10.99 13.34 -11.98 12.68 -13 12 C-12.67 11.01 -12.34 10.02 -12 9 C-11.071875 9.2784375 -11.071875 9.2784375 -10.125 9.5625 C-7.95839822 10.23686176 -7.95839822 10.23686176 -6 9 C-4.00039988 8.960008 -1.99952758 8.95653201 0 9 C0 6.03 0 3.06 0 0 Z " fill="#9FB9AB" transform="translate(248,68)"/>
<path d="M0 0 C1.62490954 -0.02698189 3.24994633 -0.04638757 4.875 -0.0625 C5.77992188 -0.07410156 6.68484375 -0.08570313 7.6171875 -0.09765625 C10 0 10 0 12 1 C11.67 1.99 11.34 2.98 11 4 C8.69 4.33 6.38 4.66 4 5 C4 5.66 4 6.32 4 7 C1.6875 7.25 1.6875 7.25 -1 7 C-2.8125 5 -2.8125 5 -4 3 C-2.68 2.67 -1.36 2.34 0 2 C0 1.34 0 0.68 0 0 Z " fill="#395B2F" transform="translate(229,38)"/>
<path d="M0 0 C0 3 0 3 -2 6 C-0.35 5.34 1.3 4.68 3 4 C2.525625 4.639375 2.05125 5.27875 1.5625 5.9375 C-0.22380068 9.43864934 -0.39694081 12.04048769 -0.49609375 15.9140625 C-1.18110933 18.74970837 -2.58792924 19.49425404 -5 21 C-5.86140345 5.95415301 -5.86140345 5.95415301 -2.5 2.0625 C-1.675 1.381875 -0.85 0.70125 0 0 Z " fill="#D9EEE3" transform="translate(65,128)"/>
<path d="M0 0 C2.62187494 1.04874998 3.79371361 1.64931313 5.25 4.125 C5.4975 4.74375 5.745 5.3625 6 6 C2.30513897 8.46324069 0.36706908 8.38991688 -4 8 C-5.9375 6.5 -5.9375 6.5 -7 5 C-6.67 4.01 -6.34 3.02 -6 2 C-4.35 2 -2.7 2 -1 2 C-0.67 1.34 -0.34 0.68 0 0 Z " fill="#071209" transform="translate(72,176)"/>
<path d="M0 0 C0.33 0 0.66 0 1 0 C1.06058594 0.89203125 1.12117188 1.7840625 1.18359375 2.703125 C1.26738281 3.87359375 1.35117187 5.0440625 1.4375 6.25 C1.55931641 7.99023438 1.55931641 7.99023438 1.68359375 9.765625 C1.8874142 12.79844414 1.8874142 12.79844414 2.51367188 14.86328125 C3.09936484 17.43656682 3.11231626 19.78307383 3.09765625 22.421875 C3.09443359 23.44667969 3.09121094 24.47148437 3.08789062 25.52734375 C3.07951172 26.59082031 3.07113281 27.65429688 3.0625 28.75 C3.05798828 29.82894531 3.05347656 30.90789062 3.04882812 32.01953125 C3.03705727 34.67974383 3.02061399 37.33984365 3 40 C4.485 39.505 4.485 39.505 6 39 C6.33 39.99 6.66 40.98 7 42 C5.35 41.67 3.7 41.34 2 41 C1.95101562 39.90945312 1.90203125 38.81890625 1.8515625 37.6953125 C1.41594246 28.72093746 0.76461919 19.83736752 -0.42724609 10.92822266 C-0.91535543 7.04024061 -1.05820519 3.79314395 0 0 Z " fill="#98B9AA" transform="translate(59,136)"/>
<path d="M0 0 C1.2065625 0.0309375 1.2065625 0.0309375 2.4375 0.0625 C2.4375 1.0525 2.4375 2.0425 2.4375 3.0625 C0.4575 3.3925 -1.5225 3.7225 -3.5625 4.0625 C-3.5625 10.0025 -3.5625 15.9425 -3.5625 22.0625 C-1.5825 22.0625 0.3975 22.0625 2.4375 22.0625 C2.7675 21.4025 3.0975 20.7425 3.4375 20.0625 C3.4375 21.0525 3.4375 22.0425 3.4375 23.0625 C1.7875 23.7225 0.1375 24.3825 -1.5625 25.0625 C-3.5625 23.6875 -3.5625 23.6875 -5.5625 21.0625 C-6.60105601 14.44472447 -5.33348109 7.46130028 -3.5625 1.0625 C-2.5625 0.0625 -2.5625 0.0625 0 0 Z " fill="#E0FEF6" transform="translate(388.5625,108.9375)"/>
<path d="M0 0 C0.125 5.75 0.125 5.75 -1 8 C-1.66 8 -2.32 8 -3 8 C-3.33 10.64 -3.66 13.28 -4 16 C-4.66 15.67 -5.32 15.34 -6 15 C-6.08078641 12.87561661 -6.13909141 10.7503677 -6.1875 8.625 C-6.22230469 7.44164062 -6.25710937 6.25828125 -6.29296875 5.0390625 C-6.19628906 4.03617188 -6.09960938 3.03328125 -6 2 C-3 0 -3 0 0 0 Z " fill="#987D56" transform="translate(57,135)"/>
<path d="M0 0 C2.68481386 2.68481386 3.66012605 5.83347085 5 9.3125 C5.26039062 9.97701172 5.52078125 10.64152344 5.7890625 11.32617188 C6.52935242 13.21615447 7.26479086 15.10803518 8 17 C8.433125 17.92167969 8.86625 18.84335938 9.3125 19.79296875 C9.539375 20.52128906 9.76625 21.24960938 10 22 C9.34 22.99 8.68 23.98 8 25 C7.71125 23.906875 7.4225 22.81375 7.125 21.6875 C6.18106796 17.95986155 6.18106796 17.95986155 4 15 C3.67 17.97 3.34 20.94 3 24 C2.67 24 2.34 24 2 24 C1.67 17.4 1.34 10.8 1 4 C0.34 3.67 -0.32 3.34 -1 3 C-0.67 2.01 -0.34 1.02 0 0 Z " fill="#415D48" transform="translate(55,82)"/>
<path d="M0 0 C0.99386719 0.02707031 1.98773438 0.05414063 3.01171875 0.08203125 C4.15060547 0.13423828 4.15060547 0.13423828 5.3125 0.1875 C4.9825 0.8475 4.6525 1.5075 4.3125 2.1875 C2.3515625 2.53125 2.3515625 2.53125 -0.0625 2.6875 C-3.58401464 2.91691463 -4.61689296 3.14042864 -7.6875 5.1875 C-10.37053363 10.55356727 -9.52478786 15.46226142 -8.6875 21.1875 C-9.3475 20.5275 -10.0075 19.8675 -10.6875 19.1875 C-10.6875 18.1975 -10.6875 17.2075 -10.6875 16.1875 C-11.3475 16.1875 -12.0075 16.1875 -12.6875 16.1875 C-12.03487809 10.83600037 -10.6769157 5.89410318 -7.44140625 1.4921875 C-4.93680614 -0.3709226 -3.07796764 -0.10863415 0 0 Z " fill="#DFFEF8" transform="translate(261.6875,108.8125)"/>
<path d="M0 0 C0.33 0 0.66 0 1 0 C1.02900455 3.6041498 1.04680018 7.20826962 1.0625 10.8125 C1.07087891 11.83666016 1.07925781 12.86082031 1.08789062 13.91601562 C1.09111328 14.89892578 1.09433594 15.88183594 1.09765625 16.89453125 C1.10289307 17.80050049 1.10812988 18.70646973 1.11352539 19.63989258 C1 22 1 22 0 25 C-0.66 25 -1.32 25 -2 25 C-2.20705918 16.3725342 -2.21462689 8.40371809 0 0 Z " fill="#E5E3DA" transform="translate(55,94)"/>
<path d="M0 0 C2.35119399 3.52679099 2.21443452 5.02879485 2.125 9.1875 C2.10695313 10.27417969 2.08890625 11.36085937 2.0703125 12.48046875 C2.03550781 13.72763672 2.03550781 13.72763672 2 15 C2.66 15 3.32 15 4 15 C3.67 16.32 3.34 17.64 3 19 C1.35 19 -0.3 19 -2 19 C-2 17.35 -2 15.7 -2 14 C-1.34 14 -0.68 14 0 14 C0 9.38 0 4.76 0 0 Z " fill="#C6DACA" transform="translate(68,160)"/>
<path d="M0 0 C0.66 0.33 1.32 0.66 2 1 C1.50628906 1.64324219 1.01257813 2.28648437 0.50390625 2.94921875 C-4.69628364 10.28389303 -6.09954474 16.05519408 -6 25 C-6.33 25 -6.66 25 -7 25 C-9.18116592 12.21973094 -9.18116592 12.21973094 -6.28515625 6.77734375 C-4.30201496 4.35505342 -2.2913283 2.13088518 0 0 Z " fill="#F2F1EA" transform="translate(74,139)"/>
<path d="M0 0 C3.77545388 1.09068668 6.47043472 1.9083091 9 5 C8.01 5.495 8.01 5.495 7 6 C6.34 5.67 5.68 5.34 5 5 C4.896875 5.639375 4.79375 6.27875 4.6875 6.9375 C4.460625 7.618125 4.23375 8.29875 4 9 C3.01 9.33 2.02 9.66 1 10 C0.34 9.67 -0.32 9.34 -1 9 C-0.67 6.03 -0.34 3.06 0 0 Z " fill="#E4E6E5" transform="translate(214,70)"/>
<path d="M0 0 C0.66 0.33 1.32 0.66 2 1 C2.4140625 3.94140625 2.4140625 3.94140625 2.625 7.5625 C2.69976562 8.76003906 2.77453125 9.95757812 2.8515625 11.19140625 C2.90054688 12.11824219 2.94953125 13.04507813 3 14 C3.66 14 4.32 14 5 14 C4.67 14.99 4.34 15.98 4 17 C3.01 16.67 2.02 16.34 1 16 C-1.37060271 10.63495176 -1.72497228 5.6061599 0 0 Z " fill="#D4D2BD" transform="translate(79,137)"/>
<path d="M0 0 C0.66 0.33 1.32 0.66 2 1 C-1.625 4 -1.625 4 -5 4 C-5.12375 5.134375 -5.2475 6.26875 -5.375 7.4375 C-5.58125 8.613125 -5.7875 9.78875 -6 11 C-6.99 11.495 -6.99 11.495 -8 12 C-8.65772428 15.02934491 -8.65772428 15.02934491 -9 18 C-9.66 18 -10.32 18 -11 18 C-10.34 13.05 -9.68 8.1 -9 3 C-7.35 2.67 -5.7 2.34 -4 2 C-3.278125 1.62875 -2.55625 1.2575 -1.8125 0.875 C-1.214375 0.58625 -0.61625 0.2975 0 0 Z " fill="#BEBCB2" transform="translate(185,120)"/>
<path d="M0 0 C0.33 0 0.66 0 1 0 C1 1.65 1 3.3 1 5 C-5.6 5.66 -12.2 6.32 -19 7 C-18 5 -18 5 -15.6875 3.9375 C-10.50625132 2.62023339 -5.32420529 2.32737832 0 2 C0 1.34 0 0.68 0 0 Z " fill="#EDEBE2" transform="translate(159,121)"/>
<path d="M0 0 C5.98916026 5.32179669 7.40339012 13.50462678 7.921875 21.1640625 C7.94765625 21.76992187 7.9734375 22.37578125 8 23 C8.99 23 9.98 23 11 23 C11 23.99 11 24.98 11 26 C11.66 26.33 12.32 26.66 13 27 C11.35 26.67 9.7 26.34 8 26 C7.67386719 24.77023438 7.34773438 23.54046875 7.01171875 22.2734375 C6.57064726 20.64053454 6.12922228 19.00772703 5.6875 17.375 C5.47416016 16.56675781 5.26082031 15.75851563 5.04101562 14.92578125 C3.78160858 10.3016897 2.23719736 6.26445245 0 2 C0 1.34 0 0.68 0 0 Z " fill="#6A9368" transform="translate(74,149)"/>
<path d="M0 0 C0.33 0 0.66 0 1 0 C2.23615622 5.09914442 2.67479795 9.97560615 1 15 C-1.31 15 -3.62 15 -6 15 C-6.99 12.03 -7.98 9.06 -9 6 C-7.68 6.33 -6.36 6.66 -5 7 C-5 8.98 -5 10.96 -5 13 C-3.35 13.33 -1.7 13.66 0 14 C0 9.38 0 4.76 0 0 Z " fill="#DDFEF3" transform="translate(419,117)"/>
<path d="M0 0 C1.2065625 0.0309375 1.2065625 0.0309375 2.4375 0.0625 C3.0625 2.4375 3.0625 2.4375 3.4375 5.0625 C2.7775 5.7225 2.1175 6.3825 1.4375 7.0625 C-1.1875 6.6875 -1.1875 6.6875 -3.5625 6.0625 C-3.605221 4.39638095 -3.60313832 2.72867115 -3.5625 1.0625 C-2.5625 0.0625 -2.5625 0.0625 0 0 Z " fill="#E3FDF6" transform="translate(243.5625,99.9375)"/>
<path d="M0 0 C3.3 0.33 6.6 0.66 10 1 C10 2.32 10 3.64 10 5 C9.67 4.01 9.34 3.02 9 2 C6.36 2 3.72 2 1 2 C1.33 3.98 1.66 5.96 2 8 C1.01 8.495 1.01 8.495 0 9 C-3 5.375 -3 5.375 -3 2 C-2.01 2 -1.02 2 0 2 C0 1.34 0 0.68 0 0 Z " fill="#576A44" transform="translate(236,43)"/>
<path d="M0 0 C1.8125 1.5 1.8125 1.5 3 3 C1.88625 3.309375 0.7725 3.61875 -0.375 3.9375 C-3.7945155 4.82326483 -3.7945155 4.82326483 -6 6 C-7.66619446 6.0396713 -9.33391013 6.04384447 -11 6 C-10.03628506 3.59071265 -9.34789837 2.23992991 -7.1875 0.75 C-4.57789447 -0.1447219 -2.74047482 -0.35134293 0 0 Z " fill="#567265" transform="translate(222,38)"/>
<path d="M0 0 C0.66 0.33 1.32 0.66 2 1 C-5.8929385 13.85421412 -5.8929385 13.85421412 -13 18 C-12.71125 17.443125 -12.4225 16.88625 -12.125 16.3125 C-10.92661791 13.98395537 -10.92661791 13.98395537 -10.125 11.3125 C-9.75375 10.549375 -9.3825 9.78625 -9 9 C-8.06027344 8.80664062 -8.06027344 8.80664062 -7.1015625 8.609375 C-4.23845691 7.77918081 -3.70414211 6.4822487 -2.25 3.9375 C-1.82203125 3.20402344 -1.3940625 2.47054687 -0.953125 1.71484375 C-0.48132813 0.86599609 -0.48132813 0.86599609 0 0 Z " fill="#3B6F53" transform="translate(216,81)"/>
<path d="M0 0 C1.62283808 3.24567617 0.54725234 6.63839624 0.0625 10.125 C-0.03740234 10.87910156 -0.13730469 11.63320312 -0.24023438 12.41015625 C-0.48798404 14.27417753 -0.74328057 16.13719288 -1 18 C-1.33 18 -1.66 18 -2 18 C-2.38855926 15.5431099 -2.76130088 13.08558167 -3.125 10.625 C-3.23714844 9.92632812 -3.34929687 9.22765625 -3.46484375 8.5078125 C-3.72816466 6.68212086 -3.8718116 4.8401238 -4 3 C-2 1 -2 1 0 0 Z " fill="#4C6A5E" transform="translate(164,125)"/>
<path d="M0 0 C1.79158489 -0.02696365 3.58328473 -0.04637917 5.375 -0.0625 C6.37273437 -0.07410156 7.37046875 -0.08570313 8.3984375 -0.09765625 C11 0 11 0 13 1 C12.34 2.32 11.68 3.64 11 5 C10.01 5 9.02 5 8 5 C8 8.63 8 12.26 8 16 C7.67 16 7.34 16 7 16 C6.94593878 14.06280622 6.90717975 12.12518079 6.875 10.1875 C6.85179687 9.10855469 6.82859375 8.02960938 6.8046875 6.91796875 C7 4 7 4 9 1 C6.03 1 3.06 1 0 1 C0 0.67 0 0.34 0 0 Z " fill="#DEFEF7" transform="translate(232,146)"/>
<path d="M0 0 C3.6969041 0.24646027 5.54337041 0.60345325 8.375 3.0625 C8.91125 3.701875 9.4475 4.34125 10 5 C6.7 5 3.4 5 0 5 C-0.33 3.68 -0.66 2.36 -1 1 C-0.67 0.67 -0.34 0.34 0 0 Z " fill="#9A8463" transform="translate(200,50)"/>
<path d="M0 0 C2 3 2 3 1.625 5.1875 C1.41875 5.785625 1.2125 6.38375 1 7 C-0.65 7.33 -2.3 7.66 -4 8 C-4 5.69 -4 3.38 -4 1 C-2.68 0.67 -1.36 0.34 0 0 Z " fill="#F0EDDB" transform="translate(167,173)"/>
<path d="M0 0 C0 1.65 0 3.3 0 5 C-1.98 5.33 -3.96 5.66 -6 6 C-6.33 4.02 -6.66 2.04 -7 0 C-2.25 -1.125 -2.25 -1.125 0 0 Z " fill="#EADFB9" transform="translate(183,169)"/>
<path d="M0 0 C0.66 0 1.32 0 2 0 C4.3992233 4.64849515 4.19957409 8.91086074 4 14 C2 13 2 13 0.875 10.375 C-0.05654649 6.78189212 -0.14783375 3.69584376 0 0 Z " fill="#CBAE92" transform="translate(65,109)"/>
<path d="M0 0 C-0.66 1.32 -1.32 2.64 -2 4 C-5 4 -8 4 -11 4 C-11.99 4.66 -12.98 5.32 -14 6 C-13.08486681 3.71216703 -12.34515354 2.26550272 -10.375 0.75 C-6.86146845 -0.35953628 -3.67700382 -0.12256679 0 0 Z " fill="#B0C0B9" transform="translate(68,58)"/>
<path d="M0 0 C0.33 0.66 0.66 1.32 1 2 C-1.18483632 5.10919014 -2.65850783 6.83608376 -6.125 8.5 C-9.54912425 10.28649961 -9.87232394 11.4290258 -11 15 C-11.99 15.495 -11.99 15.495 -13 16 C-13 13.69 -13 11.38 -13 9 C-12.113125 8.7525 -11.22625 8.505 -10.3125 8.25 C-5.57349808 6.46169739 -2.80043665 4.20065497 0 0 Z " fill="#939C6D" transform="translate(104,129)"/>
<path d="M0 0 C0.33 0 0.66 0 1 0 C1.33 2.31 1.66 4.62 2 7 C3.32 7.33 4.64 7.66 6 8 C3.82575883 10.50037734 2.26954202 11.43628586 -1 12 C-1.14285714 3.42857143 -1.14285714 3.42857143 0 0 Z " fill="#E3DFD6" transform="translate(178,112)"/>
<path d="M0 0 C0.66 0.33 1.32 0.66 2 1 C2 2.32 2 3.64 2 5 C3.32 5.66 4.64 6.32 6 7 C4.35 8.32 2.7 9.64 1 11 C0.67 9.35 0.34 7.7 0 6 C-1.65 6 -3.3 6 -5 6 C-3.35 4.02 -1.7 2.04 0 0 Z " fill="#E7FEF7" transform="translate(338,109)"/>
<path d="M0 0 C8.63502756 -0.4390692 8.63502756 -0.4390692 13 3 C14.60725635 6.21451269 14.05748185 9.43612536 14 13 C12 11 12 11 11.0625 7.5 C10.3326766 3.76314255 10.3326766 3.76314255 7 2 C4.67612053 1.60612212 2.34206251 1.26513915 0 1 C0 0.67 0 0.34 0 0 Z " fill="#E1FEF5" transform="translate(287,108)"/>
<path d="M0 0 C-0.33 0.33 -0.66 0.66 -1 1 C-0.34 1.45375 0.32 1.9075 1 2.375 C1.66 2.91125 2.32 3.4475 3 4 C3 4.66 3 5.32 3 6 C2.34 5.690625 1.68 5.38125 1 5.0625 C-2.74515563 3.73609071 -6.03592212 3.32492442 -10 3 C-10.99 3.495 -10.99 3.495 -12 4 C-11.67 3.01 -11.34 2.02 -11 1 C-9.00390625 0.234375 -9.00390625 0.234375 -6.5625 -0.25 C-5.75941406 -0.42015625 -4.95632812 -0.5903125 -4.12890625 -0.765625 C-2 -1 -2 -1 0 0 Z " fill="#44552E" transform="translate(206,47)"/>
<path d="M0 0 C-2 2 -2 2 -4.0625 3 C-6.16865601 3.84589942 -6.16865601 3.84589942 -7 6 C-8.875 5.6875 -8.875 5.6875 -11 5 C-11.66 4.01 -12.32 3.02 -13 2 C-8.46298506 0.54815522 -4.81938524 -0.23509196 0 0 Z " fill="#7C755C" transform="translate(238,39)"/>
<path d="M0 0 C0.33 0 0.66 0 1 0 C1.84888195 5.37625234 2.0024305 9.65370398 1 15 C0.34 15 -0.32 15 -1 15 C-1.33 10.71 -1.66 6.42 -2 2 C-1.34 2 -0.68 2 0 2 C0 1.34 0 0.68 0 0 Z " fill="#A2BDA5" transform="translate(162,166)"/>
<path d="M0 0 C0.99 0.33 1.98 0.66 3 1 C3.33 2.98 3.66 4.96 4 7 C2.68 7 1.36 7 0 7 C-0.66 6.34 -1.32 5.68 -2 5 C-2 4.01 -2 3.02 -2 2 C-1.34 2 -0.68 2 0 2 C0 1.34 0 0.68 0 0 Z " fill="#F3EFCE" transform="translate(84,162)"/>
<path d="M0 0 C1.32 0.66 2.64 1.32 4 2 C4 3.65 4 5.3 4 7 C2.02 7.33 0.04 7.66 -2 8 C-2 4.23312136 -1.76462683 3.08809695 0 0 Z " fill="#0D170E" transform="translate(91,171)"/>
<path d="M0 0 C2.89504691 0.55337919 4.21643261 2.0711289 5.94140625 4.37109375 C5.61140625 5.03109375 5.28140625 5.69109375 4.94140625 6.37109375 C1.06640625 4.62109375 1.06640625 4.62109375 -0.05859375 2.37109375 C-2.5859261 1.71554256 -2.5859261 1.71554256 -5.05859375 1.37109375 C-5.05859375 2.36109375 -5.05859375 3.35109375 -5.05859375 4.37109375 C-6.37859375 4.04109375 -7.69859375 3.71109375 -9.05859375 3.37109375 C-6.739281 -0.10787538 -3.99636234 -0.12511632 0 0 Z " fill="#E4FEF7" transform="translate(413.05859375,109.62890625)"/>
<path d="M0 0 C2 2 2 2 2 5 C2.99 5.33 3.98 5.66 5 6 C3.25 7.125 3.25 7.125 1 8 C-1.1875 7.375 -1.1875 7.375 -3 6 C-3.75 3.875 -3.75 3.875 -4 2 C-2.68 2.33 -1.36 2.66 0 3 C0 2.01 0 1.02 0 0 Z " fill="#EEEFEF" transform="translate(238,71)"/>
<path d="M0 0 C2 3 2 3 2 5 C3.65 4.67 5.3 4.34 7 4 C4.37801226 6.15377564 2.35595828 7.40072174 -1 8 C-1.66 6.68 -2.32 5.36 -3 4 C-2.01 2.68 -1.02 1.36 0 0 Z " fill="#A5A5A5" transform="translate(122,103)"/>
<path d="M0 0 C0.556875 0.226875 1.11375 0.45375 1.6875 0.6875 C0.90375 0.935 0.12 1.1825 -0.6875 1.4375 C-3.63567108 2.84139099 -4.2149777 3.69425737 -5.3125 6.6875 C-6.3025 6.6875 -7.2925 6.6875 -8.3125 6.6875 C-8.3125 7.3475 -8.3125 8.0075 -8.3125 8.6875 C-8.9725 8.3575 -9.6325 8.0275 -10.3125 7.6875 C-8.07735866 3.33485634 -5.4026838 -0.73009241 0 0 Z " fill="#DDCFB9" transform="translate(98.3125,115.3125)"/>
<path d="M0 0 C0 0.66 0 1.32 0 2 C-0.99 2 -1.98 2 -3 2 C-3.33 3.32 -3.66 4.64 -4 6 C-4.99 6 -5.98 6 -7 6 C-7.33 4.35 -7.66 2.7 -8 1 C-5.29120665 -0.35439668 -2.99066732 -0.06501451 0 0 Z " fill="#9E9D9C" transform="translate(247,70)"/>
<path d="M0 0 C0.33 0 0.66 0 1 0 C1.06058594 0.96421875 1.12117188 1.9284375 1.18359375 2.921875 C1.26738281 4.18515625 1.35117187 5.4484375 1.4375 6.75 C1.55931641 8.62945312 1.55931641 8.62945312 1.68359375 10.546875 C1.92515522 13.18317553 2.24283934 15.48037294 3 18 C2.01 18.66 1.02 19.32 0 20 C-0.19421438 17.04196565 -0.38066186 14.08379837 -0.5625 11.125 C-0.61857422 10.28324219 -0.67464844 9.44148438 -0.73242188 8.57421875 C-0.78076172 7.76855469 -0.82910156 6.96289062 -0.87890625 6.1328125 C-0.9260376 5.38918457 -0.97316895 4.64555664 -1.02172852 3.87939453 C-1 2 -1 2 0 0 Z " fill="#686A58" transform="translate(53,64)"/>
<path d="M0 0 C0.8353125 0.556875 0.8353125 0.556875 1.6875 1.125 C1.6875 2.115 1.6875 3.105 1.6875 4.125 C-2.6025 3.795 -6.8925 3.465 -11.3125 3.125 C-2.88173077 -1.09038462 -2.88173077 -1.09038462 0 0 Z " fill="#596551" transform="translate(198.3125,49.875)"/>
<path d="M0 0 C0.33 0 0.66 0 1 0 C1 5.94 1 11.88 1 18 C1.99 17.67 2.98 17.34 4 17 C4.33 17.99 4.66 18.98 5 20 C3.35 19.67 1.7 19.34 0 19 C0 12.73 0 6.46 0 0 Z " fill="#74A587" transform="translate(61,158)"/>
<path d="M0 0 C3.125 -0.1875 3.125 -0.1875 6 0 C6.25 2.3125 6.25 2.3125 6 5 C3.95575462 6.97610386 2.8823175 8 0 8 C1.15173355 5.53199953 2.04783565 3.95216435 4 2 C2.02 2.33 0.04 2.66 -2 3 C-1.34 2.01 -0.68 1.02 0 0 Z " fill="#E6FEF6" transform="translate(275,146)"/>
<path d="M0 0 C0.66 0.99 1.32 1.98 2 3 C0.78009593 5.43980815 -0.48527726 7.72791589 -2 10 C-2.99 10.33 -3.98 10.66 -5 11 C-4.46884894 6.48521602 -2.63379708 3.65333143 0 0 Z " fill="#D8D8D1" transform="translate(171,143)"/>
<path d="M0 0 C0.66 0.33 1.32 0.66 2 1 C1.01 2.32 0.02 3.64 -1 5 C-0.34 5.33 0.32 5.66 1 6 C1.33 6.66 1.66 7.32 2 8 C4.12576782 8.46651207 4.12576782 8.46651207 6.5625 8.625 C7.38878906 8.69976562 8.21507812 8.77453125 9.06640625 8.8515625 C9.70449219 8.90054688 10.34257812 8.94953125 11 9 C11 9.33 11 9.66 11 10 C7.61884349 10.29036649 4.37080851 10.44908891 1 10 C-1.625 7.5 -1.625 7.5 -3 5 C-2.01 3.35 -1.02 1.7 0 0 Z " fill="#E0FEF5" transform="translate(219,124)"/>
<path d="M0 0 C1.32 0.33 2.64 0.66 4 1 C4 3.64 4 6.28 4 9 C3.34 9 2.68 9 2 9 C1.34 6.03 0.68 3.06 0 0 Z " fill="#F0E7DB" transform="translate(179,132)"/>
<path d="M0 0 C0.66 0.33 1.32 0.66 2 1 C1.2884375 1.7115625 1.2884375 1.7115625 0.5625 2.4375 C-1.68076096 6.11644797 -1.73739578 9.7621112 -2 14 C-2.33 14 -2.66 14 -3 14 C-3.66 10.7 -4.32 7.4 -5 4 C-3.35 2.68 -1.7 1.36 0 0 Z " fill="#D1D1D2" transform="translate(66,132)"/>
<path d="M0 0 C2 2 4 4 6 6 C6.66 6.33 7.32 6.66 8 7 C8 7.99 8 8.98 8 10 C5.6875 9.875 5.6875 9.875 3 9 C0.97798569 5.79266696 0 3.80845564 0 0 Z " fill="#E5FEF8" transform="translate(309,126)"/>
<path d="M0 0 C2.64 0 5.28 0 8 0 C7.67 1.32 7.34 2.64 7 4 C5.02 4 3.04 4 1 4 C0.67 2.68 0.34 1.36 0 0 Z " fill="#917B59" transform="translate(237,45)"/>
<path d="M0 0 C1.32 0.99 2.64 1.98 4 3 C3 6 3 6 1 7 C-2.5 7.1875 -2.5 7.1875 -6 7 C-6.66 6.34 -7.32 5.68 -8 5 C-5.36 5.33 -2.72 5.66 0 6 C0 4.02 0 2.04 0 0 Z " fill="#001601" transform="translate(74,177)"/>
<path d="M0 0 C2 1.5 2 1.5 3 3 C1.35 3 -0.3 3 -2 3 C-2 2.34 -2 1.68 -2 1 C-2.7425 1.350625 -3.485 1.70125 -4.25 2.0625 C-7.1322726 3.04509293 -8.21176345 3.0326802 -11 2 C-7.22364747 -0.51756835 -4.43634442 -0.63772451 0 0 Z " fill="#DEFEF4" transform="translate(257,146)"/>
<path d="M0 0 C0.66 0.33 1.32 0.66 2 1 C1.67 2.65 1.34 4.3 1 6 C2.98 6.66 4.96 7.32 7 8 C7 8.99 7 9.98 7 11 C1.25 9.25 1.25 9.25 -1 7 C-1.1875 3.9375 -1.1875 3.9375 -1 1 C-0.67 0.67 -0.34 0.34 0 0 Z " fill="#FBFAE9" transform="translate(95,117)"/>
<path d="M0 0 C2.3125 -0.25 2.3125 -0.25 5 0 C6.8125 2 6.8125 2 8 4 C5.69 4 3.38 4 1 4 C0.67 2.68 0.34 1.36 0 0 Z " fill="#1F1E1E" transform="translate(218,55)"/>
<path d="M0 0 C0.99 0 1.98 0 3 0 C2.67 4.95 2.34 9.9 2 15 C1.67 15 1.34 15 1 15 C0.67 10.05 0.34 5.1 0 0 Z " fill="#E9EEE5" transform="translate(66,149)"/>
<path d="M0 0 C0.99 0.66 1.98 1.32 3 2 C2.34 3.32 1.68 4.64 1 6 C-0.32 5.67 -1.64 5.34 -3 5 C-2.625 3.0625 -2.625 3.0625 -2 1 C-1.34 0.67 -0.68 0.34 0 0 Z " fill="#F1F2F0" transform="translate(216,74)"/>
<path d="M0 0 C1.04059132 3.12177395 1.32284898 4.07083439 0 7 C-2.5625 8.25 -2.5625 8.25 -5 9 C-3.7508258 5.54074837 -2.32472205 2.85306797 0 0 Z " fill="#BBB6AE" transform="translate(79,134)"/>
<path d="M0 0 C2.94956528 1.36944102 5.52468811 2.87830409 8 5 C8 5.66 8 6.32 8 7 C7.01 7 6.02 7 5 7 C4.34 6.34 3.68 5.68 3 5 C2.01 4.34 1.02 3.68 0 3 C0 2.01 0 1.02 0 0 Z " fill="#C1D5C7" transform="translate(240,62)"/>
<path d="M0 0 C1.31602523 0.61754259 2.62773556 1.24428742 3.9375 1.875 C4.66839844 2.22304688 5.39929688 2.57109375 6.15234375 2.9296875 C8 4 8 4 9 6 C7.7625 5.5359375 7.7625 5.5359375 6.5 5.0625 C2.60873845 3.88122417 -0.96166953 3.41775832 -5 3 C-4.360625 2.690625 -3.72125 2.38125 -3.0625 2.0625 C-1.06389179 1.1654837 -1.06389179 1.1654837 0 0 Z " fill="#635E49" transform="translate(206,46)"/>
<path d="M0 0 C0.99 0.33 1.98 0.66 3 1 C2.67 3.97 2.34 6.94 2 10 C1.34 9.67 0.68 9.34 0 9 C0 6.03 0 3.06 0 0 Z " fill="#8B7955" transform="translate(51,141)"/>
<path d="M0 0 C3.63 0 7.26 0 11 0 C11 0.99 11 1.98 11 3 C9.741875 3.020625 8.48375 3.04125 7.1875 3.0625 C6.47980469 3.07410156 5.77210938 3.08570312 5.04296875 3.09765625 C3 3 3 3 0 2 C0 1.34 0 0.68 0 0 Z " fill="#335748" transform="translate(224,76)"/>
<path d="M0 0 C1.98 0.66 3.96 1.32 6 2 C2.8250906 3.9078584 0.89414789 4.1609041 -2.75 3.625 C-3.54921875 3.51414063 -4.3484375 3.40328125 -5.171875 3.2890625 C-5.77515625 3.19367187 -6.3784375 3.09828125 -7 3 C-7 2.67 -7 2.34 -7 2 C-3.535 1.505 -3.535 1.505 0 1 C0 0.67 0 0.34 0 0 Z " fill="#6E5F4C" transform="translate(209,53)"/>
<path d="M0 0 C0.33 0 0.66 0 1 0 C0.67 2.97 0.34 5.94 0 9 C-0.33 8.34 -0.66 7.68 -1 7 C-1.66 7 -2.32 7 -3 7 C-2.38722388 4.03824877 -1.74627478 2.61941217 0 0 Z " fill="#E4E4DB" transform="translate(185,123)"/>
<path d="M0 0 C0.66 0.33 1.32 0.66 2 1 C0.66666667 3.66666667 -0.66666667 6.33333333 -2 9 C-2.66 9 -3.32 9 -4 9 C-3.46930939 5.17902761 -2.50298434 2.93828597 0 0 Z " fill="#DEFEF7" transform="translate(313,99)"/>
<path d="M0 0 C1.65 0.99 3.3 1.98 5 3 C4.67 3.99 4.34 4.98 4 6 C2.35 5.67 0.7 5.34 -1 5 C-1.33 4.01 -1.66 3.02 -2 2 C-1.34 1.34 -0.68 0.68 0 0 Z " fill="#E3E3CB" transform="translate(79,151)"/>
<path d="M0 0 C1.65 0 3.3 0 5 0 C5 1.98 5 3.96 5 6 C4.34 5.67 3.68 5.34 3 5 C3 4.01 3 3.02 3 2 C2.01 2.33 1.02 2.66 0 3 C0 2.01 0 1.02 0 0 Z " fill="#DFFDF5" transform="translate(264,146)"/>
<path d="M0 0 C0.66 0.33 1.32 0.66 2 1 C-3.75 6 -3.75 6 -6 6 C-5.67 4.68 -5.34 3.36 -5 2 C-4.360625 1.855625 -3.72125 1.71125 -3.0625 1.5625 C-1.02454854 1.18992819 -1.02454854 1.18992819 0 0 Z " fill="#99BCA6" transform="translate(194,113)"/>
<path d="M0 0 C3.875 1.875 3.875 1.875 5 3 C5.04063832 4.66617115 5.042721 6.33388095 5 8 C2.2175651 6.60878255 1.44789935 4.69835788 0 2 C0 1.34 0 0.68 0 0 Z " fill="#DBFEF6" transform="translate(348,109)"/>
<path d="M0 0 C1.98 0.99 3.96 1.98 6 3 C5.67 3.99 5.34 4.98 5 6 C3.0625 5.25 3.0625 5.25 1 4 C0.25 1.875 0.25 1.875 0 0 Z " fill="#FCFCFC" transform="translate(239,64)"/>
<path d="M0 0 C4.875 4.75 4.875 4.75 6 7 C3.03 6.505 3.03 6.505 0 6 C0 4.02 0 2.04 0 0 Z " fill="#F7D3AB" transform="translate(92,121)"/>
<path d="M0 0 C0.33 0.99 0.66 1.98 1 3 C0.38125 3.598125 -0.2375 4.19625 -0.875 4.8125 C-3.13676954 7.00811144 -3.13676954 7.00811144 -5 10 C-5.3125 7.8125 -5.3125 7.8125 -5 5 C-2.5 2.1875 -2.5 2.1875 0 0 Z " fill="#8D8D8D" transform="translate(99,93)"/>
<path d="M0 0 C-0.66 1.65 -1.32 3.3 -2 5 C-3.32 4.67 -4.64 4.34 -6 4 C-5.67 3.01 -5.34 2.02 -5 1 C-2 0 -2 0 0 0 Z " fill="#767D77" transform="translate(215,82)"/>
<path d="M0 0 C0.99 0.33 1.98 0.66 3 1 C1 3 1 3 -2 5 C-2.66 5.99 -3.32 6.98 -4 8 C-3.6875 5.125 -3.6875 5.125 -3 2 C-2.01 1.34 -1.02 0.68 0 0 Z " fill="#848484" transform="translate(176,75)"/>
<path d="M0 0 C1.485 0.99 1.485 0.99 3 2 C3.1875 4.625 3.1875 4.625 3 7 C2.01 7 1.02 7 0 7 C0 4.69 0 2.38 0 0 Z " fill="#416B53" transform="translate(248,68)"/>
<path d="M0 0 C0.33 0.66 0.66 1.32 1 2 C1.66 2 2.32 2 3 2 C2.67 2.99 2.34 3.98 2 5 C1.34 4.34 0.68 3.68 0 3 C0 2.01 0 1.02 0 0 Z M-2 4 C-1.01 4.33 -0.02 4.66 1 5 C1 5.66 1 6.32 1 7 C-0.32 6.67 -1.64 6.34 -3 6 C-2.67 5.34 -2.34 4.68 -2 4 Z " fill="#716E6F" transform="translate(231,59)"/>
<path d="M0 0 C1.65 0 3.3 0 5 0 C5 3 5 3 3.5 4.6875 C3.005 5.120625 2.51 5.55375 2 6 C1.855625 5.38125 1.71125 4.7625 1.5625 4.125 C1.06847775 1.96741678 1.06847775 1.96741678 0 0 Z " fill="#9AA39E" transform="translate(152,54)"/>
<path d="M0 0 C1.0625 1.875 1.0625 1.875 2 4 C1.67 4.66 1.34 5.32 1 6 C-0.32 5.34 -1.64 4.68 -3 4 C-2.67 3.01 -2.34 2.02 -2 1 C-1.34 0.67 -0.68 0.34 0 0 Z " fill="#859486" transform="translate(210,43)"/>
<path d="" fill="#A9FFFF" transform="translate(0,0)"/>
<path d="" fill="#A2FFFF" transform="translate(0,0)"/>
<path d="M0 0 C0.66 0 1.32 0 2 0 C1.67 0.66 1.34 1.32 1 2 C0.67 1.34 0.34 0.68 0 0 Z " fill="#D4FFFF" transform="translate(270,147)"/>
<path d="" fill="#FFFFFF" transform="translate(0,0)"/>
<path d="" fill="#FFFFFF" transform="translate(0,0)"/>
<path d="" fill="#FFFFFF" transform="translate(0,0)"/>
<path d="" fill="#FFFFFF" transform="translate(0,0)"/>
</svg>
